<?xml version="1.0" encoding="utf-8"?>
<!-- Generator: Adobe Illustrator 23.0.0, SVG Export Plug-In . SVG Version: 6.00 Build 0)  -->
<svg version="1.1" id="Layer_1" xmlns="http://www.w3.org/2000/svg" xmlns:xlink="http://www.w3.org/1999/xlink" x="0px" y="0px"
	 viewBox="0 0 566.9 566.9" style="enable-background:new 0 0 566.9 566.9;" xml:space="preserve">
<style type="text/css">
	.st0{fill:#FD7E14;}
</style>
<title>icons</title>
<path class="st0" d="M568.4,393.8c-3.4,4.4-8.2,6.7-12.9,9.3l-180.4,99.1c-5.6,3.1-10.6,3.3-16.2,0.2
	c-61.8-34.1-123.7-68.1-185.7-102.1c-5.9-3.2-8.8-7.4-8.3-14.1c0.3-4.6-0.2-9.3,0.1-13.9s-1.5-5.9-6-5.9
	c-28.4,0.2-56.9,0.1-85.3,0.1c-8.4-0.1-13.2-4.8-12.8-12.4c0.1-5.2,4-9.6,9.1-10.4c3.3-0.6,6.6-0.8,9.9-0.8c26-0.1,52-0.2,78,0.1
	c5.7,0,7.3-1.7,7.2-7.3c-0.4-14-0.4-28,0-42c0.2-5.9-1.9-7.1-7.3-7.1c-18.4,0.3-36.9,0.2-55.3,0.1c-9-0.1-14.6-7.9-11.4-15.8
	c1.2-3.6,4.2-6.3,8-6.9c3.1-0.5,6.2-0.8,9.3-0.8c16.6-0.1,33.2-0.2,49.8,0.1c5.5,0,7.1-1.8,6.9-7.1c-0.4-7.9-0.1-15.8-0.1-23.8
	s-0.1-7.6-7.5-7.6c-39.1,0-78.2-0.1-117.4,0c-4.2,0-8-0.5-11.1-3.8c-5.9-6.5-3-16.9,5.5-18.9c3.5-0.7,7-1,10.5-0.9h112.3
	c7.6,0,7.6,0,7.7-7.6c0-3.9,0.2-7.8-0.1-11.6c-0.6-6.9,2.5-11,8.4-14.2l103.8-56.9c26.8-14.8,53.7-29.4,80.5-44.3
	c6.5-3.6,12.1-3.6,18.6,0c61.4,33.9,122.9,67.5,184.3,101.3c3.1,1.6,5.9,3.9,7.9,6.8v80.8c-5.1,6.2-9.3,8-14.6,6.1
	s-7.9-5.6-7.9-14.1v-41.6c0-6.7-0.1-6.7-5.7-3.6c-13.1,7.2-26.1,14.6-39.3,21.5c-4.2,2.2-5.7,5-5.6,9.6c0.2,16.2,0.1,32.5,0.1,48.7
	c0,6.2-1.8,11.2-7.6,14.3c-12.8,7-25.5,14.1-38.4,21c-10,5.3-18.5-0.1-18.6-11.5s-0.2-25.1,0-37.7c0.1-4.3-0.5-5.8-5-3.2
	c-14.3,8.1-28.7,16-43.2,23.7c-3.2,1.7-4.4,3.8-4.3,7.4c0,57.2,0.1,114.4-0.1,171.6c0,4.8,1,5.4,5.2,3.1
	c52.7-29.1,105.4-58.1,158.1-86.9c3.2-1.7,4.5-3.8,4.4-7.4c-0.1-12.3-0.1-24.7,0-37.1c0-6.7,4.3-11.5,10.5-12.1s8.9,2.9,12,6.7
	V393.8z M355.4,382.2c0-28.6,0-57.2,0.1-85.8c0-3.5-0.9-5.8-4.2-7.6c-52.9-28.9-105.8-57.9-158.6-87c-3.8-2.1-4.9-1.7-4.9,2.8
	c0.1,57.4,0.1,114.8,0,172.2c0,3.4,1.2,5.3,4.2,7l158.1,86.7c5.2,2.9,5.3,2.8,5.3-3.1V382.2z M252.5,151.9c-2.4,0.2-4.1,1.4-5.8,2.4
	c-13.3,7.3-26.5,14.5-39.7,21.9c-1.7,0.9-4.6,1.1-4.5,3.4s2.6,2.2,4.2,3.1c51.9,28.5,103.8,57.1,155.6,85.6c3.3,1.8,5.9,1.9,9.1,0
	c13.8-7.8,27.8-15.3,41.7-23c1.2-0.7,3.2-1,3.3-2.6s-2.2-2.2-3.5-3l-156.6-86L252.5,151.9z M318,115.2l2.2,1.5
	c53.2,29.2,106.4,58.4,159.5,87.7c3,1.6,5.3,1.4,8.1-0.2l39.8-21.8c1.4-0.7,3.7-1.2,3.7-2.8s-2.5-2.3-4-3.2L462.8,141l-91.1-50.1
	c-2.2-1.2-4.3-2.9-7.2-1.3C349.3,98.1,333.9,106.4,318,115.2z M458,219.6c-1.5-0.9-2.9-1.9-4.3-2.6
	c-50.2-27.7-100.5-55.1-150.6-83.1c-7.4-4.2-13.4-4.8-20,0.4c-1.6,1.2-4.5,1.5-4.6,3.5s3,2.9,4.8,3.9l151.2,83
	c7.4,4,16.5,2.6,22.3-3.5L458,219.6z M471.7,259.7c0-5.1-0.1-10.3,0-15.4c0.1-3.4-1.1-3.9-3.9-2.2l-10.1,5.6c-2.1,0.9-3.4,3-3.2,5.3
	c0.1,10.1,0.1,20.2,0,30.3c0,3.4,1.3,3.7,4.1,2.4c13.1-6,13.1-6,13.1-20.4V259.7z M568.4,289.7c-0.9-0.9-1.7-2-2.6-2.9
	c-4-3.8-8.5-5.1-13.6-2.5s-6.8,6.6-6.3,11.9s3.9,8.7,9,9.9s10.1-1.9,13.5-6.4L568.4,289.7z M28.8,366.4c5.9-0.2,10.8-4.8,11.3-10.7
	c0.4-6-3.8-11.2-9.7-12.1c-6.5-1.2-13.3-1.2-19.8,0c-6.2,1.1-9.8,5.8-9.5,12.1s4.7,10.4,11.1,10.7c2.6,0.2,5.2,0.1,7.7,0.1
	S25.8,366.6,28.8,366.4z M45.8,275.3c0.3,6.4,5.5,11.4,11.9,11.4c6.2,0.1,11.4-4.9,11.5-11.1c0-0.2,0-0.3,0-0.5
	c0-6.5-5.1-11.3-11.7-11.3c-6.3-0.2-11.5,4.8-11.7,11.1C45.8,275,45.8,275.2,45.8,275.3z"/>
</svg>
