<?xml version="1.0" encoding="utf-8"?>
<!-- Generator: Adobe Illustrator 23.0.0, SVG Export Plug-In . SVG Version: 6.00 Build 0)  -->
<svg version="1.1" id="Layer_1" xmlns="http://www.w3.org/2000/svg" xmlns:xlink="http://www.w3.org/1999/xlink" x="0px" y="0px"
	 viewBox="0 0 566.9 566.9" style="enable-background:new 0 0 566.9 566.9;" xml:space="preserve">
<style type="text/css">
	.st0{fill:#FD7E14;}
</style>
<title>icons</title>
<path class="st0" d="M6.5,329.3c0.6-11.2-1.4-25.1,0.9-38.8c2.9-18,12.8-31.6,28.5-40.7c2.9-1.6,4.8-3.2,5-7.1
	C43.3,196.2,58,153.8,85,116c38.3-53.6,89.8-88,154.7-99.4C324,1.7,397.6,24.6,458.6,85c39.1,38.7,61.2,86.1,68.8,140.5
	c0.5,3.4,1.4,7,1,10.4c-1,8.3,2.9,12.5,9.6,16.9c16.4,10.9,24.8,27,25,46.8c0.2,21.4,0.1,42.8,0,64.2s-9.7,39.1-28.4,50.5
	c-4,2.4-5.1,5.1-5.1,9.4c0,13.4,0.8,26.9-1.8,40.3c-7.1,36.9-40.7,65-78.2,65.2H413c-2.6,0-4.5,0.4-5.8,3.1
	c-8.2,16.7-22.2,24.1-40.3,24.2c-13.8,0-27.6,0.6-41.4-0.6c-20.3-1.7-36.4-18-37.6-38.4c-1.4-19.3,12.9-37.8,32.3-42.1
	c7.9-1.7,15.8-1.1,23.7-1c11.2,0.2,22.5-1.2,33.7,0.9c12.8,2.4,22.4,9.3,28.3,20.9c1.8,3.6,4,5.1,8.1,5c12-0.2,24,0.1,36-0.2
	c27.6-0.9,50-22.8,51.4-50.4c0.3-7.9-0.1-15.8,0.1-23.8c0.1-3.4-1.2-4.6-4.5-5.5c-18.7-5-29.6-19-29.7-38.3
	c-0.1-33.8-0.1-67.6,0-101.3c0.1-18.7,10.3-32.5,28.3-37.7c6.3-1.8,5-6,4.6-9.9c-3.7-31.4-12.6-61.1-29.2-88.1
	c-35.7-57.8-86.9-93.9-154.2-103.4c-77.7-10.9-143.7,14.1-196,73c-27.5,31-43.6,67.7-50.2,108.5c-0.1,0.9-0.2,1.9-0.3,2.8
	c-0.4,4.6-2.4,9.4-0.8,13.6s7.8,3.7,11.8,5.9c13.5,7.4,20.7,19,20.8,34.1c0.4,34.5,0.5,69,0.1,103.5c-0.3,26.5-23,43.2-49.7,37.3
	s-45.9-29-46-57.3L6.5,329.3z M74.1,332.3c0-16.8,0-33.6-0.1-50.3c0-8.8-5.5-13.2-14.1-11.5c-15.6,3.1-25.1,13.9-25.3,29.6
	c-0.2,21.6-0.2,43.2,0,64.7c0.2,15.1,9.7,26.3,24.4,29.3c9.6,2,15-2.3,15-12C74.1,365.5,74.1,348.9,74.1,332.3z M495.5,332.4
	c0,16.6-0.1,33.2,0,49.7c0,9.6,5.3,13.9,14.5,12.2c14.6-2.8,24.7-14.1,24.9-28.9c0.2-21.8,0.2-43.6,0-65.3
	c-0.2-15.4-9.1-25.9-24.3-29.3c-9.7-2.2-15.1,1.9-15.1,11.8C495.4,299.2,495.5,315.8,495.5,332.4z M349.7,502.6h-19.9
	c-8,0.2-13.5,5.1-13.7,12.1c-0.2,7,4.8,13.4,12.4,13.6c14,0.4,28.1,0.4,42.1,0c7.1-0.3,12.6-6.2,12.3-13.3c0-0.1,0-0.2,0-0.3
	c-0.4-7.2-5.8-12-13.8-12.1H349.7z M285,141.1h83c35.2,0,59.9,24.7,59.9,59.9v109.1c0,35.3-24.5,59.7-60,59.7
	c-20.8,0-41.7,0.3-62.5-0.2c-6.6-0.1-11,2-15.4,6.5c-14,14.5-28.3,28.7-42.7,42.7s-35.5,10.4-44.7-6.4c-2.4-4.2-3.5-9-3.4-13.8
	c0-8-0.1-15.9,0-23.8c0.1-3.4-1-4.8-4.6-5.2c-31.3-3.1-52.9-27-52.9-58.3c-0.1-37.1-0.1-74.2,0-111.3c0-34,25-58.9,59.2-58.9
	L285,141.1z M227.3,399.1l5.3-5c14.9-14.9,29.9-29.5,44.6-44.6c5.4-5.6,11.4-8,19.1-8c25.5,0.2,50.9,0.3,76.4,0
	c14.4-0.2,26.8-12.7,26.9-27.1c0.1-39.1,0.1-78.2,0-117.3c-0.1-15.2-12.5-27.7-27.5-27.7c-58.3-0.2-116.6-0.2-174.9,0
	c-14.7,0-27.2,12.5-27.2,27.3c-0.2,39.1-0.2,78.2,0,117.3c0,14.9,12.3,27,27.1,27.5c4.8,0.2,9.6,0,14.4,0.2
	c10,0.5,15.1,5.6,15.7,15.6c0.3,3.9,0.1,7.8,0.1,11.6L227.3,399.1z M285,237.4c-11.2-0.1-20.3,8.8-20.4,20
	c-0.1,11.2,8.8,20.3,20,20.4c11.2,0.1,20.3-8.8,20.4-20c0-0.1,0-0.1,0-0.2C304.9,246.5,296.1,237.6,285,237.4z M200.2,257.5
	c-0.2,11,8.7,20.1,19.7,20.3c0.2,0,0.3,0,0.5,0c10.9-0.1,20.2-9.3,20.3-20.1c-0.2-11.3-9.3-20.3-20.6-20.3
	C209.1,237.5,200.1,246.5,200.2,257.5C200.2,257.5,200.2,257.5,200.2,257.5z M349.1,237.4c-11,0.1-20.2,9.3-20.2,20.1
	c0,10.8,9.5,20.4,20.6,20.3s19.9-9.2,19.8-20.7c-0.1-10.9-9-19.8-19.9-19.7C349.3,237.4,349.2,237.4,349.1,237.4L349.1,237.4z"/>
</svg>
