<?xml version="1.0" encoding="utf-8"?>
<!-- Generator: Adobe Illustrator 23.0.0, SVG Export Plug-In . SVG Version: 6.00 Build 0)  -->
<svg version="1.1" id="Layer_1" xmlns="http://www.w3.org/2000/svg" xmlns:xlink="http://www.w3.org/1999/xlink" x="0px" y="0px"
	 viewBox="0 0 566.9 566.9" style="enable-background:new 0 0 566.9 566.9;" xml:space="preserve">
<style type="text/css">
	.st0{fill:#FD7E14;}
</style>
<title>icons</title>
<path class="st0" d="M295.3,0.7c16,3.2,30.1,9.9,40,23.5c2.5,3.4,4.7,7.1,6.4,11c1.6,4.2,4.1,5.3,8.4,5.2c10.1-0.2,20.3,0,30.4-0.1
	c3.5,0,7,0.5,10.4,1.6c6,1.9,8.6,5.5,8.7,11.8s0.3,10.4,0,15.5s1.5,5.4,5.5,5.4c15.3-0.2,30.6-0.1,45.9,0
	c29.1,0.1,53.7,23.2,56.2,52.2c0.5,5.3,0.7,10.7,0.7,16c0,122.3,0,244.7,0,367c0,13.8-2.4,26.8-11.8,37.7
	c-11.3,12.9-25.4,20.4-42.5,20.4c-113,0.2-225.9,0.2-338.8,0.1C89.9,567.9,67,549.7,62,526.2c-1-5-1.5-10.2-1.4-15.3
	c-0.1-125-0.1-249.9,0-374.8c0-31.9,18.6-55.2,48.5-60.9c7.9-1.5,15.9-0.5,23.8-0.6c10.3-0.2,20.7-0.2,31,0c3.6,0,5-1.3,4.9-4.9
	s-0.1-9.9-0.1-14.9c0.1-8.2,2.9-11.6,10.9-13.6c6.2-1.6,12.5-0.7,18.7-0.8s13.7-0.1,20.5-0.1c2.3,0,4.3-0.2,5.4-2.7
	c8.9-20.1,24.7-31.6,45.6-36.9H295.3z M89.4,323.4v63.1c0,42.7,0,85.3,0.1,127.9c0,11.6,5.6,19.4,16.6,23.3c3.6,1.4,7.5,2,11.4,2
	h333.2c18.3,0,28.2-10.3,28.2-28.4V170.9c0-13.3,0.2-26.6,0-39.9c-0.2-15.3-12.5-27.7-27.8-28.1c-15.3-0.2-30.6,0.1-45.9-0.1
	c-4.6-0.1-5.7,1.7-5.6,5.9c0.2,8.1,0.1,16.2,0,24.3c0,9.9-4.9,15.4-14.7,16.7c-2.8,0.4-5.5,0.5-8.3,0.5H190.7
	c-2.6,0-5.2-0.1-7.8-0.4c-9.3-1.3-14-6.7-14.2-16s-0.2-16.3,0.1-24.4c0.2-5-1.3-6.8-6.5-6.7c-13.6,0.4-27.3,0.8-40.9,0
	c-17-1.1-32.4,12.6-32.2,32C89.9,197.6,89.4,260.5,89.4,323.4z M284.2,121.3c26.9,0,53.9-0.1,80.8,0.1c4.7,0,6.5-1.3,6.4-6.3
	c-0.3-13.5-0.3-26.9,0-40.4c0.1-5-1.7-6.3-6.4-6.1c-8.5,0.3-17,0-25.5,0c-14.2,0-16.9-2-21.2-15.7c-5-16.1-20.6-27.2-36.8-26.3
	s-29.3,12.3-34.2,28.6c-3.1,10.4-7.2,13.4-17.9,13.4c-8.7,0-17.4,0.3-26-0.1c-4.8-0.1-6.6,1.2-6.4,6.2c0.3,13.3,0.3,26.6,0,39.9
	c-0.2,5.5,1.8,6.8,7,6.8C230.7,121.2,257.5,121.3,284.2,121.3z M275.3,330.5c-2.9-0.1-5.9,0.2-8.7,1c-6.2,2-10.6,8.2-10.1,14.3
	c0.6,6.6,5.7,12,12.3,12.9c3.5,0.4,7,0.6,10.5,0.6h138.3c3.5,0,7-0.2,10.5-0.6c6.3-0.7,11.2-5.8,11.6-12.1
	c0.7-6.8-2.8-12.6-9.1-14.9c-3.2-1-6.5-1.4-9.8-1.2L275.3,330.5L275.3,330.5z M311.9,438.8c-13.6,0-27.3-0.1-40.9,0.1
	c-8.2,0.1-14.3,6-14.5,13.7s5.8,13.9,13.9,14.5h151c1.8,0.1,3.7,0,5.5-0.2c8.8-1.1,14.1-8.1,12.7-16.8c-1.1-6.9-6.7-11.3-14.8-11.3
	L311.9,438.8L311.9,438.8z M423.6,251.2c8.3,0,14.2-3.9,15.8-10.3c2.4-9.6-3.8-17.9-14-17.9H268.8c-6.7,1-11.8,6.4-12.3,13.1
	C256,242,260,248,266,250.2c2.8,0.9,5.8,1.2,8.7,1.1h73.6C373.4,251.2,398.5,251.3,423.6,251.2z M133.1,344
	c9.1,9.4,18.2,18.8,27.6,28c5.4,5.2,12.5,5.7,18,0.7c18.3-16.9,36.5-33.9,54.2-51.4c8.1-7.9,3.7-20.5-7.3-23.3
	c-5.7-1.4-10.1,0.9-14,4.6c-12.2,11.6-24.6,22.9-36.5,34.8c-4.1,4.1-6.5,3.7-10-0.4c-4.2-5-8.6-9.6-13.4-14c-4.1-4-10.3-5-15.4-2.5
	c-5.2,2.4-7.7,6.7-7.5,12.9C128.4,337.3,130.2,341,133.1,344z M132.9,235.7c8.7,9,17.3,18,26.2,26.9c7.1,7.1,14.4,7.2,21.9,0.4
	l14-13.3c12.4-11.9,24.9-23.6,37.2-35.5c6.6-6.5,6.3-15-0.3-20.8s-14-4.9-20.8,1.5c-12.1,11.5-24.3,23.1-36.2,34.8
	c-3.5,3.4-5.8,3.5-9-0.2s-9.4-9.9-14.4-14.5s-9.7-5.1-15.3-2.4s-7.5,6.9-7.4,13.3C128.5,229.3,130,232.7,132.9,235.7L132.9,235.7z
	 M133,451.8c8.6,8.8,17.1,17.8,25.8,26.5s14.6,7.5,22.3,0.4c4.8-4.3,9.4-8.8,14.1-13.3c12.4-11.8,24.9-23.5,37.2-35.5
	c6.4-6.3,6.1-14.7-0.3-20.4s-14.1-5.2-20.8,1.2c-12.3,11.6-24.6,23.3-36.7,35.2c-3.3,3.3-5.5,3.2-8.5-0.2c-4.5-5-9.3-9.9-14.3-14.6
	s-9.7-5.3-15.3-2.7s-7.8,7-7.7,13.6C128.5,445.5,130.2,448.9,133,451.8L133,451.8z"/>
</svg>
