<?xml version="1.0" encoding="utf-8"?>
<!-- Generator: Adobe Illustrator 23.0.0, SVG Export Plug-In . SVG Version: 6.00 Build 0)  -->
<svg version="1.1" id="Layer_1" xmlns:xodm="http://www.corel.com/coreldraw/odm/2003"
	 xmlns="http://www.w3.org/2000/svg" xmlns:xlink="http://www.w3.org/1999/xlink" x="0px" y="0px" viewBox="0 0 3429.9 746.6"
	 style="enable-background:new 0 0 3429.9 746.6;" xml:space="preserve">
<style type="text/css">
	.st0{fill-rule:evenodd;clip-rule:evenodd;fill:url(#SVGID_1_);}
	.st1{fill-rule:evenodd;clip-rule:evenodd;fill:url(#SVGID_2_);}
	.st2{fill-rule:evenodd;clip-rule:evenodd;fill:#CCCCCC;}
	.st3{fill:#FFFFFF;}
	.st4{fill:url(#SVGID_3_);}
	.st5{fill-rule:evenodd;clip-rule:evenodd;fill:#FFFFFF;}
	.st6{fill-rule:evenodd;clip-rule:evenodd;fill:#FBFBFB;}
	.st7{clip-path:url(#SVGID_5_);fill-rule:evenodd;clip-rule:evenodd;fill:#FFFFFF;}
	.st8{fill:url(#SVGID_6_);}
	.st9{fill:url(#SVGID_7_);}
	.st10{fill:url(#SVGID_8_);}
	.st11{fill:url(#SVGID_9_);}
	.st12{fill:url(#SVGID_10_);}
</style>
<linearGradient id="SVGID_1_" gradientUnits="userSpaceOnUse" x1="20205.4551" y1="-6731.3501" x2="8201.2334" y2="-27014.3496" gradientTransform="matrix(2.834646e-02 0 0 -2.834646e-02 13.6046 -235.325)">
	<stop  offset="0" style="stop-color:#FFFFFF"/>
	<stop  offset="1" style="stop-color:#FFFFFF;stop-opacity:0"/>
</linearGradient>
<path class="st0" d="M583.7,83.1l1-68.6c0,0-372.9,78.3-239,511.1L277,556.7C277,556.7,177.2,152,583.7,83.1z"/>
<linearGradient id="SVGID_2_" gradientUnits="userSpaceOnUse" x1="2.181" y1="501.2292" x2="638.6912" y2="501.2292">
	<stop  offset="0" style="stop-color:#FFFFFF;stop-opacity:0"/>
	<stop  offset="1" style="stop-color:#FFFFFF"/>
</linearGradient>
<path class="st1" d="M549.4,288.3l89.3-32.5c0,0,18,532.6-584.1,393.9L2.2,740.7C2.2,740.7,623.8,833.6,549.4,288.3z"/>
<path class="st2" d="M398.5,276.9l-2.2-6.4l107.5,6.4l1.7,6.4L398.5,276.9z M520.7,250.8l1.2,5.4l-16.3,27l-1.7-6.4L520.7,250.8z
	 M277,556.7c0,0-131-392.1,306.7-473.6c2.4-0.4,2.3-0.5,0,0c-79.5,17.9-134.2,29.7-194.2,80.5C282.6,254.3,246.5,384.3,277,556.7
	L277,556.7z M330,422.5l-2.7-9.3l152.9,16.5l2,9.3L330,422.5z M506,393.7l1.3,7.8l-25.1,37.5l-2-9.3L506,393.7z M2.1,740.7
	c-41.9-11.1,531.6,73.4,553-344.2c0.1-1.9-2.2,54.7-18.3,106.4c-9.1,29.1-23.4,61.5-48.7,95.9c-50.2,68.3-132.8,110.8-226.8,131.4
	c-27.1,5.9-91.6,17.2-165.3,16.4C63.4,746.2,31.7,744.7,2.1,740.7L2.1,740.7z M364.3,348.3l-2.3-7.4l122.6,10.6l1.8,7.4L364.3,348.3
	z M504.6,322.3l1.2,6.2l-19.5,30.4l-1.8-7.4L504.6,322.3z M330.7,499.7l-1.8-7.5L450.6,510l1.3,7.5L330.7,499.7z M472.4,482l0.8,6.3
	L452,517.5l-1.3-7.5L472.4,482z M340.8,566.9l-1.3-6.7l105.8,19.9l0.9,6.6L340.8,566.9z M465.2,556.5l0.5,5.5l-19.6,24.8l-0.9-6.6
	L465.2,556.5z"/>
<path class="st3" d="M2050.6,605.1c-5.3-0.7-10.6-1.2-15.8-2.4c-20.2-4.6-36.2-13.9-49.5-26.2c-16.2-15-27.2-32.2-35.7-50.5
	c-9.8-21.1-15.6-42.9-19.2-65c-2.9-17.7-4.2-35.6-4.9-53.4c-0.5-13.2-0.3-26.5,0.3-39.7c1.5-33.4,5.9-66.5,16.6-99
	c7.5-22.8,18-44.6,34-64.7c11.2-14.1,24.9-26.4,43.6-34.8c10-4.5,20.7-7.3,32.1-8.5c0.7-0.1,1.4-0.2,2-0.4c6.8,0,13.6,0,20.4,0
	c8.2,1.1,16.2,2.6,23.9,5.2c15,5.1,26.8,13.3,37.2,22.9c2.9,2.7,5.5,5.5,8.3,8.2c1.3,1.3,1.7,2.7,1.3,4.3c-4.3,19-7.4,38.1-8.7,57.4
	c-0.1,1.2,0,2.3-2.2,2.5c-2.2,0.1-3.5-0.4-4.1-2.2c-3.9-10.4-8.8-20.4-15.4-29.9c-5.6-8.1-12.1-15.7-21.1-21.8
	c-19.4-13.3-44.4-11.9-61.5,3.5c-10.5,9.5-17.5,20.5-23.1,32.1c-9.7,20.1-15.5,41-19.6,62.1c-3.6,19-5.7,38.1-6.8,57.3
	c-0.9,16.2-1.4,32.4-0.8,48.5c0.9,27.7,3.3,55.3,10.7,82.6c4,14.6,9.2,28.9,17.5,42.4c5.7,9.2,12.6,17.9,23.2,24.2
	c13.4,8.1,28.2,10.4,44.2,5.7c9-2.7,14.9-8.4,20.5-14.2c1-1.1,0.6-2.4,0.6-3.6c0-45.8,0-91.5,0-137.3c0-5.3,0-5.3,6.9-4.4
	c3.1,0.4,6.1,0.7,9.1,1.2c10.4,1.9,20.5-0.1,30.6-1.2c4.5-0.5,4.5-0.6,4.5,3c0,54.9,0,109.8,0.1,164.7c0,2.4-1,3.8-3.5,5.1
	c-14.1,7.1-28.4,13.9-43.7,19.3c-10.3,3.6-20.9,6.2-32.2,7c-0.4,0-0.8,0.2-1.1,0.3C2063,605.1,2056.8,605.1,2050.6,605.1z
	 M1314.7,605.1c2.7-0.5,5.5-0.9,8.1-1.5c15.6-3.8,26.5-12,34.8-22.6c13-16.4,21.4-34.2,26.8-52.9c6.4-21.8,8.8-44,10-66.3
	c1-20.6,1.5-41.2,1.4-61.8c-0.1-18,0-35.9,0-53.9c0-56.8,0-113.7,0-170.5c0-4.7,0-4.3-5-2.9c-4.4,1.2-8.9,1.7-13.5,0.3
	c-5.7-1.7-5.7-1.7-5.7,3.1c-0.3,79.1,0.6,158.3-0.5,237.4c-0.2,12.3-0.6,24.6-1.2,36.9c-0.8,16.5-2.2,32.9-6.2,49.2
	c-3.3,13.5-6.9,27-13.8,39.8c-3.7,6.8-8.3,13.2-16,18c-9.5,5.9-22.8,7-32,2.7c-5.5-2.6-9.6-6.3-12.8-10.6
	c-10.9-14.1-16.8-29.6-19.8-45.7c-4.2-22.5-6-45.2-6.6-68c-0.4-14.2-0.6-28.3-0.6-42.5c-0.1-72.4-0.1-144.8-0.1-217.2
	c0-0.9-0.1-1.7,0-2.6c0.1-1.7-0.7-2.2-2.9-1.8c-4.5,0.8-9,1.5-13.4,2.3c-4,0.8-7.8,0.9-11.8,0.1c-3.8-0.8-7.6-1.3-11.4-2
	c-5.2-0.9-5.2-0.9-5.2,3.3c0,81.2,0,162.3,0,243.5c0,18.6,0.1,37.2,1.8,55.7c1.2,13.4,2.4,26.7,4.9,40c3.4,18.1,8.6,35.9,18.6,52.7
	c4.5,7.5,10.1,14.6,17.3,20.8c10.7,9.3,23.7,15.3,39.8,17C1304.7,605.1,1309.7,605.1,1314.7,605.1z M1506,160.4
	c-0.5,0.1-0.9,0.3-1.4,0.4c-12.8,1.9-22.8,7.1-31.1,14.7c-9.7,8.8-16,19-21.1,29.8c-10.9,23.2-14.9,47.5-16,72
	c-0.7,16.6-0.3,33.3,2.2,49.8c2.4,16.2,6.5,32.1,14,47.4c3.1,6.2,6,12.6,11.3,17.9c13,13,26,25.9,39.4,38.6
	c12.9,12.1,23.1,25.2,28,40.6c4.2,13,5.6,26.2,4.7,39.6c-0.7,9.7-2,19.3-5.6,28.6c-3.3,8.4-7.8,16.4-16.3,22.6
	c-8.7,6.3-21,7.1-30.9,1.9c-5.7-3-9.8-7-13.3-11.5c-8.6-11.1-12.9-23.4-16-36c-1.2-5.1-2-10.2-2.8-15.4c-0.3-2.3-2.5-1.7-4.3-1.8
	c-1.9-0.1-2.6,0.6-2.8,2.1c-0.5,6-1.1,12-1.8,18c-1.4,11.2-2.9,22.5-4.5,33.7c-1,7.6-2.2,15.2-3.3,22.8c-0.1,1-0.1,2,0.6,2.9
	c5,6,10.7,11.6,17.9,16.1c8.5,5.4,18.2,8.6,29,9.9c4.8,0,9.6,0,14.4,0c17.2-2,30.5-9.2,41.2-19.5c11-10.5,18.5-22.6,24.4-35.2
	c11.4-24.5,15.1-50.1,15.9-76c0.3-11.1-0.4-22.1-1.6-33.2c-1.8-16.5-5.5-32.7-12.3-48.4c-4.4-10.1-9.3-20-17.4-28.7
	c-14.6-15.6-29.8-30.9-44.9-46.2c-8.2-8.3-14.7-17.3-19-27.3c-9.6-22.2-8.6-44.6-1.8-67.1c2.1-6.8,5.5-13.3,11.4-18.7
	c10.4-9.5,27.6-9.5,37.8,0c6.7,6.3,10.2,13.8,13.4,21.4c3.2,7.8,5.3,15.9,7.1,24c0.4,1.9,1.7,2.3,3.7,2.1c3.1-0.2,2.3-2.3,2.5-3.6
	c3-18.5,5.9-37,9.7-55.4c0.5-2.4,0.1-4.5-1.6-6.6c-10.5-13-23.9-23-44-26.3C1516,160.4,1511,160.4,1506,160.4z M3374.3,488.5
	c-0.1-0.6-0.4-1.2-0.4-1.8c-0.8-9.7-2.5-19.2-5.4-28.7c-6.1-19.6-17-37-36.6-50.7c-6.1-4.3-11.3-9.2-16.5-14.1
	c-14.3-13.7-22.7-28.7-18.3-46.8c1.6-6.8,3.9-13.3,10.2-18.5c8.4-6.9,18.3-6.6,25.8,0.9c5.9,5.9,9.4,12.7,12.4,19.7
	c3.3,7.8,5.3,15.7,6,23.9c0.2,1.9,1.2,2.7,3.7,2.7c6.9-0.2,6.9,0.8,7.4-5.2c0-0.2,0.1-0.5,0.1-0.7c2.3-15.4,4.6-30.7,6.9-46.1
	c0.2-1.4,0.4-2.9-0.5-4.3c-6.9-9.7-15.5-18.3-28-24c-11.7-5.4-23.9-6.4-36.2-1.2c-8.2,3.5-14,8.9-18.9,14.9
	c-9.3,11.4-14.6,23.9-17.9,37c-4.8,19.3-5.6,38.7-4.3,58.3c0.9,13.3,3.3,26.3,8.6,39c3.8,9.1,8.5,17.9,16.9,25.1
	c9.5,8.2,19.2,16.4,29,24.4c6.7,5.4,12.6,11.2,16.4,18.2c6,10.9,7.2,22.3,4.6,33.9c-1.9,8.3-6,15.9-13.8,22c-4.6,3.6-10,4.6-16.2,3
	c-3.3-0.8-6.1-2.2-8.6-4.1c-5.3-3.8-8.8-8.6-11.7-13.6c-5.4-9.3-8.4-19-10.6-29c-1.2-5.2-0.2-4.5-7.3-4.7c-2.3,0-3.2,0.7-3.3,2.4
	c-0.6,8.2-1.2,16.4-1.9,24.6c-0.7,9.1-1.5,18.2-2.2,27.3c-0.2,2-0.6,4,0.9,5.9c4.5,5.7,9.5,11.1,16,15.6
	c12.4,8.3,26.5,11.1,42.4,7.6c11.6-2.6,20-8.6,26.6-16.2c13.4-15.3,19.4-32.6,22.7-50.7c1-5.3,1.5-10.6,2.3-15.9
	C3374.3,508.6,3374.3,498.6,3374.3,488.5z M2769.3,300.1c0-3.7,0-3.8-4.5-3.2c-13.4,2-26.7,3-40-0.1c-1.6-0.4-2.5,0.1-2.5,1.4
	c0,0.7,0,1.4,0,2.1c0,97.8,0,195.6,0,293.5c0,0.6,0,1.2,0,1.9c-0.1,1.7,0.7,2.2,2.9,1.7c3.4-0.8,7-1.4,10.4-2.1
	c6.3-1.3,12.6-1.4,18.9,0.2c3.2,0.8,6.5,1.5,9.8,2c4.6,0.8,5,0.5,5-3.2c0-27.4-0.1-54.8,0-82.2c0.2-38.1-0.8-76.2,0.6-114.3
	c0.4-11.5,1.9-22.9,5.5-34c1.9-6,4.4-11.8,9.6-16.6c6.5-6,16.4-5.9,22.6,0.3c2.3,2.3,3.9,4.9,5.2,7.6c3.7,7.6,5,15.6,6,23.6
	c2,15.8,2.3,31.7,2.3,47.6c0.2,56.1,0.1,112.3,0.1,168.4c0,3.3,0.1,3.5,4.2,2.5c11.3-2.9,22.6-4,33.9-0.3c0.7,0.2,1.5,0.3,2.3,0.5
	c6.3,1.2,6.6,1,6.6-4c0-65.6,0-131.2,0.2-196.8c0-9.7,0.9-19.3,3-28.9c1.6-7,3.7-13.8,9.7-19.5c6.3-6,19.8-8.9,27.5,1.8
	c2.7,3.8,4.5,7.8,5.7,11.9c4.3,14.7,5.1,29.6,5.2,44.5c0.4,62.3,0.2,124.7,0.3,187c0,0.9,0,1.9,0,2.8c0.1,1.2,0.8,1.7,2.3,1.3
	c2.1-0.5,4.3-0.8,6.4-1.3c9.2-2.3,18.4-2.6,27.6,0.2c1.6,0.5,3.3,0.7,4.9,1c5.6,1,5.8,0.9,5.8-3.6c0-61.2,0-122.4,0-183.6
	c0-19.7,0-39.3-3.1-58.9c-1.8-11.5-4.4-23-9.6-34c-3.6-7.7-8.5-14.9-16.6-20.4c-10.7-7.4-29-9.9-41.9-1c-3.4,2.3-6.4,4.9-9,7.8
	c-10.3,11.3-16.5,24-21.6,37.1c-0.6,1.5-1.1,3-1.7,4.5c-2-7.2-3.8-14.4-6.5-21.4c-3.5-8.9-7.9-17.6-15.7-24.8
	c-10.8-10-27.9-12.3-41.3-3.1c-9.5,6.5-15.8,14.7-21,23.5c-3.8,6.3-6.6,12.9-9.4,19.6C2769.3,326.1,2769.3,313.1,2769.3,300.1z
	 M2409.3,339.2c0-0.8,0-1.7,0-2.5c0-12.2,0-24.3,0-36.5c0-3.9,0-3.9-4.7-3.1c-12.5,2.2-24.9,2.6-37.4-0.1c-2.2-0.5-3.2,0-3,1.8
	c0.1,0.5,0,0.9,0,1.4c0,98,0,195.9,0,293.9c0,0.6,0,1.2,0,1.9c-0.1,1.5,0.7,2,2.6,1.5c2.9-0.6,5.8-1.1,8.7-1.8
	c7.7-1.8,15.3-1.8,22.9,0.3c2.3,0.6,4.6,1.1,6.9,1.5c5.5,1,5.9,0.8,5.9-3.5c0-41.7,0-83.5,0-125.2c0-25.2-0.2-50.5,2.4-75.7
	c1.1-10.7,2.8-21.4,6.7-31.8c2.1-5.7,4.6-11.3,10.4-15.5c5.4-4,12.6-4,18.1-0.2c2.4,1.7,4.3,3.7,5.8,5.9c3.9,5.8,5.9,12,7.3,18.3
	c3.6,16.2,4.5,32.6,4.7,49c0.4,34.5,0.2,69.1,0.2,103.6c0,24.1,0,48.2,0,72.2c0,3.2,0.6,3.6,4.5,2.9c3.5-0.6,7-1.3,10.4-2.1
	c5.4-1.3,10.7-1.5,16.2-0.2c3.6,0.8,7.4,1.4,11.1,2c4.8,0.8,4.8,0.7,4.8-3.1c0-0.6,0-1.2,0-1.9c0-54.1-0.1-108.1,0-162.2
	c0-25.2,0.2-50.5-3.7-75.6c-1.8-12.1-4.3-24.1-9.5-35.6c-3.8-8.2-8.6-16-17.2-22c-10.5-7.3-27.4-9.7-40.1-1.7
	c-3.3,2.1-6.2,4.4-8.9,6.9c-7.1,6.8-12.1,14.5-16.7,22.5c-2.8,4.8-5.3,9.8-7.9,14.7C2409.6,339.3,2409.4,339.3,2409.3,339.2z
	 M2693.8,382.4c-3.2-19.1-8.2-37.9-18.1-55.7c-5.7-10.3-12.8-19.8-23.6-27.4c-16.6-11.6-40.2-12.2-57.6-1.3
	c-7.9,5-13.6,11.3-18.4,18.2c-10.4,14.9-16.2,30.9-20.6,47.4c-7.3,27.2-9.6,54.7-10,82.4c-0.3,20.4,0.7,40.8,3.9,61.2
	c2.9,18.2,7.4,36.1,15.6,53.3c5.4,11.2,12.1,21.9,22.9,30.8c8.7,7.1,19.1,11.5,31.9,11.7c14.6,0.3,26-4.7,35.3-12.9
	c9.6-8.5,15.8-18.4,20.7-28.9c11.3-23.7,16.6-48.4,19.6-73.4c1.9-15.9,2.8-31.8,2.5-46.8C2698.1,420.7,2697,401.5,2693.8,382.4z
	 M2650.8,472.4c-1.2,22.3-2.8,44.7-7.8,66.7c-2,9.1-4.4,18.1-9.7,26.5c-1.2,2-2.7,3.8-4.6,5.4c-4.6,3.8-10.2,3.9-15,0.3
	c-4.6-3.4-6.8-7.8-8.8-12.3c-4-9.1-6.1-18.4-7.6-27.9c-2.5-14.7-3.8-29.5-4.4-44.4c-0.7-15.6-1.2-31.1-0.9-46.7
	c0.4-18,0.7-36.1,2.4-54c1.6-16.2,3.4-32.4,9.4-48.1c2-5.1,4.4-10.1,8.9-14.4c6.3-6,15.1-5.8,20.8,0.5c5.8,6.4,8.1,13.7,10.2,21.2
	c3.4,12.1,5,24.4,6.2,36.8c1.5,16.7,1.9,33.4,1.8,51.5C2651.8,445.6,2651.5,459,2650.8,472.4z M2331,446.8c4.1,0,4.1,0,4.1-3
	c0.2-23.4,0.1-46.8-3.6-70c-2.5-15.6-6.1-31.1-13.2-45.9c-5-10.5-11.4-20.3-22-28.1c-13.8-10.1-34-12.4-50.9-5.6
	c-10.3,4.1-17.6,10.6-23.7,18c-9.5,11.7-15.4,24.6-20.1,37.9c-9.7,27.9-12.3,56.4-13,85.1c-0.2,10.4,0.4,20.7,0.9,31.1
	c1,20.3,3.5,40.5,8.6,60.4c4.1,16,9.7,31.6,19.6,46.2c6.9,10.1,15.4,19.1,28.6,24.8c17.8,7.7,38.5,8.1,55.4-3.7
	c7.2-5,13-10.9,18.3-17.1c1.4-1.7,2.1-3.5,2.6-5.4c2-9.5,3.9-18.9,6.1-28.4c0.5-2.4,0.2-4.3-1.7-6.3c-2.2-2.3-2.1-2.4-3.9,0.1
	c-4.6,6.4-9.8,12.4-16.8,17.4c-8,5.7-17.1,9-28.2,6.7c-7.6-1.6-13.1-5.5-17.5-10.4c-8.4-9.4-12.5-20.2-15.3-31.3
	c-5.9-23-7.5-46.2-6.2-69.5c0.1-2.3,1.1-2.8,3.9-2.8c14.7,0.1,29.4,0,44.1,0S2316.3,446.8,2331,446.8z M2241.4,416.5
	c-2.2,0-3-0.6-3-2.3c0.3-23.1,1-46.1,6.6-68.9c1.3-5.4,3.2-10.7,6.1-15.8c1.6-2.9,3.7-5.7,6.8-7.8c5.2-3.6,11.2-3.1,15.2,1.2
	c4.4,4.9,6.1,10.6,7.6,16.2c2.8,10.4,4.1,20.9,5,31.5c1.2,14.1,1.7,28.3,1.7,42.4c0,3.3,0,3.3-4.3,3.3c-6.7,0-13.4,0-20.1,0
	C2255.8,416.5,2248.6,416.4,2241.4,416.5z M3150.8,409.2c0.8-10.7,2.2-21.4,4.2-32.1c2.4-12,5.1-24,10.2-35.5
	c2.6-5.9,5.7-11.6,10.9-16.4c8.1-7.6,20-7.8,28.3-0.3c1.5,1.3,2.8,2.8,4,4.3c6.7,8.7,9.8,18.4,12.2,28.3c1.9,7.9,2.6,16,3.5,24
	c0.1,0.7-0.1,1.6,0.8,1.9c2.2,0.6,4.6,0.5,6.8,0.1c1.7-0.3,1.5-1.7,1.7-2.7c4-20,7.9-39.9,11.9-59.9c0.2-1.2,0-2.3-0.8-3.3
	c-6.4-7.8-14.2-14.5-24.4-19.5c-26.6-13-55.3-9.6-75.6,8.9c-9.7,8.8-16.6,18.9-22.2,29.6c-12.5,23.8-18.1,48.7-21,74.1
	c-1.8,16.3-2.3,32.6-2,48.9c0.3,17,1.7,34,4.9,50.9c3.5,18.6,9.2,36.8,19.5,53.9c6.5,10.8,14.4,20.8,26.6,28.3
	c19.7,12.2,45,14.8,67.6,1.3c7.5-4.5,13.7-9.9,15.5-17.4c2.2-9.3,3.8-18.7,6.2-27.9c1.3-4.8,0.7-9-2.5-13c-0.1-0.1-0.2-0.3-0.3-0.4
	c-0.5-0.5-0.5-1.6-1.6-1.5c-1,0-1.1,1-1.4,1.6c-3.2,6.4-7.5,12.3-13.4,17.5c-14,12.6-31.1,10.1-42.6,1.2c-5.8-4.5-9.7-10-12.7-15.9
	c-7.5-14.3-10.5-29.3-12.6-44.5c-2.4-17.3-3-34.7-3.1-52.2C3149.4,430.7,3150,419.9,3150.8,409.2z M3057.6,300.6
	c0-4.2,0-4.2-5.5-3.4c-6.9,1-13.7,2.2-20.8,1.4c-5-0.5-10.1-1.2-15.1-1.8c-5.7-0.7-5.7-0.7-5.7,3.8c0,97.7,0,195.4,0,293.1
	c0,0.5,0.1,1.1,0,1.6c-0.3,2.2,1.2,2.8,3.6,2.3c3.7-0.7,7.4-1.4,11-2.2c5.6-1.3,11.1-1.5,16.8-0.1c3.4,0.8,7,1.4,10.5,2
	c5.1,0.8,5.1,0.8,5.1-3.3c0-0.5,0-0.9,0-1.4c0-48.4,0-96.8,0-145.2C3057.6,398.5,3057.6,349.5,3057.6,300.6z M954.3,581
	c0,4.6,0,9.3,0,13.9c0,2.9,0.5,3.3,4.2,2.8c4.1-0.6,8.2-1.4,12.2-2.3c6-1.3,12-1.5,18-0.2c3.6,0.8,7.1,1.5,10.7,2.1
	c5.7,1,5.9,0.8,5.9-3.7c0-66.8,0-133.5,0-200.3c0-3.5,0.1-3.6,4.6-3.8c7.2-0.2,14.3-1,21.4-1.7c14.2-1.6,28.4-2.3,42.7-0.8
	c9.4,1,18.8,2.2,28.3,2.5c5.2,0.2,5.2,0.2,5.2,4.3c0,66.4,0,132.9,0,199.3c0,0.9,0.1,1.7,0,2.6c-0.1,1.5,0.8,2.1,2.7,2
	c3.3-0.2,6.5-0.8,9.7-1.6c8.8-2.3,17.6-2.5,26.4,0c1.9,0.5,3.9,0.8,5.8,1.1c6.4,1.1,6.5,1,6.5-4.1c0-139.1,0-278.2,0-417.3
	c0-0.6,0-1.2,0-1.9c-0.1-2.6-0.6-3.1-4-2.5c-4.4,0.7-8.8,1.6-13.1,2.5c-5,1-10,1.3-15.1,0.3c-4.4-0.9-8.9-1.8-13.4-2.5
	c-5.3-0.9-5.6-0.7-5.6,3.6c0,53.3,0,106.6,0,159.8c0,0.8-0.1,1.6,0,2.3c0.2,1.6-0.6,2.2-2.7,2.3c-5.8,0.3-11.5,0.7-17.3,1
	c-11.2,0.6-22.3,1.6-33.5,1.1c-14.8-0.6-29.5-1.5-44.2-2.2c-4.5-0.2-4.5-0.1-4.5-3.7c0-53.4,0-106.7,0-160.1c0-0.8-0.1-1.6,0-2.3
	c0.2-1.9-1-2.5-3.3-2.2c-3.8,0.5-7.5,1.1-11.1,2c-7,1.7-13.9,1.9-20.9,0.2c-3.1-0.8-6.4-1.3-9.6-1.9c-6.1-1-6.3-0.8-6.3,3.9
	c0,69.6,0,139.2,0,208.9C954.3,450.1,954.3,515.5,954.3,581z M759.7,593.3c0,0.9,0.1,1.7,0,2.6c-0.1,1.6,0.9,2.1,2.7,1.9
	c3.3-0.2,6.5-0.8,9.6-1.6c8.8-2.3,17.6-2.4,26.4,0c2.4,0.7,5,1,7.6,1.4c4,0.6,4.4,0.3,4.4-2.8c0-13.9,0-27.7,0-41.6
	c0-46.5,0-92.9-0.1-139.4c0-2.1,0.6-3,3.6-3c6.1,0,12.2-0.5,18.2-1.3c18.6-2.4,35-8.1,47.8-19.1c9.4-8,15.6-17.6,20.2-27.7
	c9.2-20.4,12.3-41.7,13.8-63.2c0.9-13.1,1-26.3,0.2-39.5c-0.8-12.1-2.3-24.1-5.7-35.9c-3.3-11.8-8.1-23.2-17.1-33.2
	c-11.6-12.8-27.3-19.6-47.7-19.6c-26.8,0-53.6,0-80.4,0c-2.8,0-4.1,0.6-3.7,2.9c0.1,0.8,0,1.5,0,2.3c0,69.3,0,138.6,0,207.9
	C759.7,454.1,759.7,523.7,759.7,593.3z M810.5,208.4c0-3.2,0-3.2,4.1-3.2c4.9,0,9.8,0.1,14.7,0c5.3-0.1,9.5,1.6,12.8,4.6
	c5.7,5.3,8.7,11.6,11.2,18.1c4.6,11.7,6.8,23.7,8,35.8c1.1,10.7,1.4,21.3,1,32c-0.6,17.1-2.4,34.2-8.9,50.7
	c-3.3,8.3-7.7,16.1-15.9,22.3c-6.9,5.3-15.7,6.4-24.8,6.8c-1.5,0.1-2.2-0.6-2.1-1.7c0-0.7,0-1.4,0-2.1c0-27.2,0-54.4,0-81.5
	C810.5,262.9,810.5,235.7,810.5,208.4z M1693.1,166.3c-2.9-0.2-3.8,0.9-4.2,2.9c-4.6,20.8-9.2,41.6-13.8,62.5
	c-6.6,29.9-13.3,59.8-19.9,89.7c-4.8,21.5-9.6,43-14.4,64.5c-7.3,32.9-14.7,65.7-22.1,98.6c-5.2,23.4-10.4,46.8-15.6,70.2
	c-3,13.5-6,27-9,40.5c-0.2,0.7-0.9,1.6,0,2.2c1,0.7,2.1-0.1,3-0.4c8.3-3.1,16.6-3.7,25,0c3.2,1.4,3.7,1,4.1-1.9
	c1.4-8.7,2.8-17.3,4.3-26c3.3-18.3,6.7-36.6,10.1-54.9c2.6-14.2,5.3-28.5,7.9-42.7c0.6-3.5,0.7-3.5,5.2-3.5c22.2,0,44.4,0,66.6,0
	c8.1,0,6.7-1.2,8.1,5.4c4.5,21.5,8.7,43,12.4,64.5c2.4,13.9,4.7,27.8,7,41.7c0.9,5.4,1.8,10.9,2.7,16.3c0.3,1.7,1.1,2.3,3.4,1.9
	c2.6-0.5,5.3-0.8,7.9-1.4c10.1-2.3,20.2-2.4,30.4,0c4.2,1,8.5,1.7,13,1.7c4.2-0.1,4.2,0,3.5-3.3c-3.5-16.2-7-32.4-10.5-48.5
	c-4.2-19.5-8.5-39.1-12.8-58.6c-5.4-24.7-10.6-49.5-16-74.2c-4.2-19.6-8.6-39.2-12.8-58.8c-5.3-24.6-10.7-49.3-16-73.9
	c-5.1-23.7-10.2-47.3-15.4-71c-2.9-13.4-5.9-26.7-8.6-40.1c-0.5-2.6-1.9-3.4-5.1-3.2c-2.9,0.2-5.8,0-8.7,0
	C1699.5,166.4,1696.3,166.5,1693.1,166.3z M1710.3,386.2c2.8,13.4,5.5,26.9,8.3,40.3c0.4,2-0.4,2.4-2.8,2.4c-18.1,0-36.2-0.1-54.3,0
	c-3.7,0-2.6-1.7-2.3-3.1c2.2-10.2,4.5-20.4,6.8-30.7c6.1-27.8,12.2-55.7,18.3-83.5c1.7-7.9,3.5-15.9,5.5-24.5
	C1696.7,320.6,1703.5,353.4,1710.3,386.2z M3033.7,220.4c18,0,32.7,11.3,32.7,25.3s-14.6,25.3-32.7,25.3s-32.7-11.3-32.7-25.3
	S3015.7,220.4,3033.7,220.4z"/>
<g>
	<path class="st3" d="M305.9,474c1.8-0.2,4.1-0.2,10,0.6c5.8,0.8,15.8,4.9,15.8,4.9s2.8,2-1.8,0.9c-4.6-1.1-17.2-2.3-17.3-2.4
		c-0.1,0-4.1-0.3-6.9-0.7C305.9,476.7,306.2,475,305.9,474L305.9,474z"/>
	<path class="st3" d="M220.3,595.3c-1.3,0.5-2.6,1.1-4,2c-0.1,0-0.1,0.1-0.2,0.1c-1.2,0-3,0.1-4.2-0.1c-0.2-0.2-0.1-0.2-0.6-0.7
		c-0.4-0.5-1.6-0.5-2.1-0.9c-0.1-0.7-0.3-1.1,0.4-2c0.7-0.8,1.1-1.4,5.3-2.5C216.7,592.8,218.6,594.1,220.3,595.3L220.3,595.3z
		 M235.5,594.1c-1.5,0.1-3.3,0.2-5.1,0.3c-0.7-0.9-2.1-2.4-3.9-4.3c0.4,0-1.4,0,1.1,0c2.5,0,9.3-1.1,11.2-0.7c-1,0.3-2.7,2.2-2.7,3
		C235.9,593.1,235.7,593.6,235.5,594.1L235.5,594.1z"/>
	<path class="st3" d="M252.2,674.2c0,0,1.4-8.5,0.1-20.3c-1-9.5-2.1-13.1-2.4-14.2c-0.6,0.4-1.8,1.1-2.8,1
		c0.4,2.7,1.6,11.4,1.7,13.1c0,2.1,1.3,13.6,1.4,19.8C250.2,673.7,251.5,674.7,252.2,674.2L252.2,674.2z"/>
	
		<linearGradient id="SVGID_3_" gradientUnits="userSpaceOnUse" x1="7024.5332" y1="-30458.7852" x2="7980.1831" y2="-30522.0352" gradientTransform="matrix(2.834646e-02 0 0 -2.834646e-02 13.6046 -235.325)">
		<stop  offset="0" style="stop-color:#FFBFC2"/>
		<stop  offset="1" style="stop-color:#FF6261"/>
	</linearGradient>
	<path class="st4" d="M241.9,626.7c0,0-4.2,21.1-22.8,33.5c-18.6,12.5-19.7-24.5-19.7-24.5s-1-27.6,16.9-38.5
		C234.2,586.4,243,608,243,608S244.9,616.7,241.9,626.7z"/>
	<path class="st3" d="M240,602.6c1.3-0.4,2.9-1.1,4.2-2c1-0.7,1.8-1.5,2.4-2.4c2.3-4,0.7-6.8-1.3-7.8c-2-1-7.6-2.5-9.2,2
		c-0.1,0.4-0.3,0.8-0.4,1.2c-0.4,1.4-0.8,2.6-1,3.5C236.9,598.7,238.6,600.8,240,602.6L240,602.6z"/>
	<path class="st3" d="M247.6,605.7l3-1.4c0,0,6.4-1.4,7.3,1.7c0.8,2.8,0.8,3.7-2.9,5.4c-3.9,1.9-9.9,1-11.8,0.7l-0.1-0.3
		c0,0-0.9-0.9-1.5-1.1c0-0.3,0.1-0.5,0.4-0.9C243.1,608.5,247.6,605.7,247.6,605.7L247.6,605.7z"/>
	<path class="st3" d="M249.6,604.8c-1.1-2.1-2.9-6.3-1.4-8.3c2-2.8,7.8-1.5,7.8-1.5s2.7,1.6,2.4,4c-0.2,1.5-0.8,4.5-1.1,6.4
		c-2.3-1.8-6.7-1-6.7-1L249.6,604.8L249.6,604.8z"/>
	<path class="st3" d="M250.3,639.4l-7.2-27.5c0,0-2.5-2.7-2.2,0.5c0.2,3.2,3.5,26.1,5,27.8C247.3,641.9,250.3,639.4,250.3,639.4
		L250.3,639.4z"/>
	<path class="st3" d="M253.1,675L253.1,675l-1.1-1.1c-0.4,0.2-1,0.1-1.4-0.2l-0.5,0.2c0.3,7.6-0.3,11.5-3.2,18.2c0,0,3-0.8,4.3-5.1
		C252.3,682.7,253.1,675.2,253.1,675L253.1,675z"/>
	<path class="st3" d="M231,595.1L231,595.1c0,0-15.1-18-25.8-23.3c-10.7-5.3-12.3-3-12.3-3c-0.8,1.3-1,2.8,0.8,4.5
		c1.8,1.8,16.4,15.1,26.5,21.9C224.4,593.7,228,594,231,595.1L231,595.1z"/>
	<path class="st3" d="M167.2,616.4c0,0,24.6-32.3,28.3-41.5c-0.8-1.1-0.3-5.3,0.1-6.2c-0.4-0.3-1.3-1.3-2.6,0.1
		c-1.3,1.4-28.4,36.7-29,45.3c1.4-0.7,3.4-1.3,3,0.9c-0.1,0.4-0.2,0.9-0.4,1.6C166.8,616.5,167,616.5,167.2,616.4L167.2,616.4z"/>
	<path class="st3" d="M152.4,646.4c0,0,0.1,0.8,2,0.5c2-0.3,2.5-11.4,5.1-14.3c2.6-2.9,7-14.5,7.5-17.8c0.6-3.3-4.1-0.3-4.1-0.3
		S154.9,622.7,152.4,646.4z"/>
	<path class="st3" d="M144.6,657.8c0,0,4.3-1.5,7.7-8c0,0,0.9-1.6,1.6-2.8c-1.2,0.1-1.4-0.4-1.5-0.6c-0.8,0.3-2.4,1.2-4,3.2
		c-2.3,2.8-3.3,5.4-4.2,7C143.3,658.3,144.6,657.8,144.6,657.8L144.6,657.8z"/>
	<path class="st3" d="M137.7,663l7.4-5.5h0c-0.4,0.2-0.7,0.3-0.7,0.3s-1.2,0.4-0.6-0.9l-6.2,4.1L137.7,663L137.7,663z"/>
	<polygon class="st3" points="127,663.5 130.3,663.7 130.6,662.5 137.7,663 137.6,661 137.8,660.9 130,660.6 129.9,661.5 
		128.7,661.2 128.6,662.4 127.5,662.1 	"/>
	<path class="st3" d="M208.7,604.3c-0.7-2.3-1.2-7.3-1.2-7.3s-0.7-5.2,4-0.4c0.8,0.8,1.3,1.8,1.7,3C211.5,601,210,602.6,208.7,604.3
		z"/>
	<path class="st3" d="M306.3,525c0,0-9.1,5.8-10.2,8.9c-1.1,3.1-8.7,9.8-15.8,9.4c-3.2-0.2-5.3-0.2-6.7-0.2
		c-3.8-2.5-5.8-5.8-5.8-5.8s0.2-3.2-2.2-4.4c-2.4-1.2-3.6-9.9,0.8-12.4l0.7-0.4c-1,1.7-1.2,3.4-0.2,4.4c1.5,1.5,5.1,0.8,8-1.7
		c2.9-2.4,4.1-5.6,2.6-7.2c-0.2-0.2-0.4-0.4-0.7-0.5c0.3,0,0.6,0,0.9-0.1c0,0,0.5,0.2,3.8-2.6c3.3-2.8,7.5-4.5,7.5-4.5
		s2.3-2,11.2,1.7l1.5,0.5l-0.4,1l1.5-0.1l-0.6,1.3l1.2-0.2c0,0,0.3,3.9-0.4,4.9c-0.7,1.1,3,4.4,3,4.4S307.6,523.3,306.3,525
		L306.3,525z"/>
	<path class="st3" d="M235.8,642c2.5,2.9,6,7.8,8.7,14.5c0,0,0.8,2.3-1.8-0.3c-2-2.1-6-6.8-9.2-10.6
		C234.4,644.3,235.1,643.1,235.8,642L235.8,642z"/>
	<path class="st3" d="M250.4,548.5c0,0-0.4-2.8-1.9-5.8c0,0-1.5-0.7-2.5-0.4c-0.9,0.3,0.6,8,2.1,10.4
		C248.7,551.3,249.5,549.9,250.4,548.5z"/>
	<path class="st3" d="M257.4,512.8c0,0-2.2,12.8-7.7,25.1c0,0-0.8,1.8-1.6,4.7c-0.5-0.2-1.4-0.4-2.1-0.2l2.2-8.7
		c0,0,5-17.7,6.5-19.6c1.4-1.8,1.3-1.7,1.3-1.7S257.4,511.9,257.4,512.8L257.4,512.8z"/>
	<path class="st3" d="M269.6,511.5c0,0-8.4-0.7-12.3,1.7c0-0.2,0.1-0.4,0.1-0.4c0-0.9-1.5-0.4-1.5-0.4s0.1-0.1-1,1.3
		c0.2-0.7,0.5-1.3,0.5-1.3l0.5-0.8c0,0,8.5-2.8,13.6-0.8C274.7,512.8,269.6,511.5,269.6,511.5L269.6,511.5z"/>
	<path class="st3" d="M268.9,576.2c-0.5-0.1-6-1.3-4.9-10.5c3.1-8,11.3-10.1,12.5-10.1c2,3.5,0.7,11.1-0.2,14.4
		C276.3,570,274.9,574.5,268.9,576.2z"/>
	<path class="st3" d="M268.9,576.2l0,0.8c0,0-0.6,2.3,5.6,1.4c6.2-0.9,9.1-2.1,20.9-9.8c11.8-7.6,14.7-13.8,14.7-13.8
		c-1.1-0.2-2.1-1.5-2-2.7c-1.1,0.8-13.6,10.6-16.9,12.7c-3.4,2.2-7.1,4.1-10.7,5.1c-1.8,0.5-3.1,0.3-4.2,0.1
		C276,570.7,274.5,574.6,268.9,576.2L268.9,576.2z"/>
	<path class="st3" d="M266.6,593.2c0,0-0.8-5.2-7.7-9.4c0,0-9.1-0.6-7.1,7c0,0,1.4,3.7,11.8,5.8
		C263.6,596.6,266.8,595.3,266.6,593.2z"/>
	<path class="st3" d="M308.4,617.6L308.4,617.6L308.4,617.6c0,0-3.3-7.9-19.4-15.6c-11.4-5.5-19-7.4-22.5-8c-0.3,1-1.3,1.8-2.1,2.2
		c3.7,3.3,10.8,6.9,18.3,12c8.1,5.4,20.9,9.9,23.2,10.3C308.1,618.9,308.4,617.7,308.4,617.6L308.4,617.6z"/>
	<path class="st3" d="M334.9,642.8L334.9,642.8L334.9,642.8c0,0-1.9-4.6-13.6-16.1c-11.7-11.5-12.3-10.4-12.3-10.4l-1.3,0.1
		c0.5,0.7,0.6,1.2,0.6,1.2s-0.1,0.8-1.2,1c0.9,1.2,4,5.6,10.1,12.2c7.2,7.7,14.6,13.7,14.6,13.7
		C334.7,645.3,334.9,642.9,334.9,642.8L334.9,642.8z"/>
	<path class="st3" d="M334.9,643.2c1.4,1.2,3.8,3.2,5.7,5.4c3,3.4,14,15.9,21.3,17.2c0,0,0.4,1.1-0.1,1.7c0,0-10-4.2-15.4-10.3
		c-5.1-5.5-3.8-3.8-7.8-7.5c-3.8-3.4-5.4-3.3-6.2-5.1C334.1,644.9,334.7,643.8,334.9,643.2L334.9,643.2z"/>
	<path class="st5" d="M362.1,666.3l3.2,0.5l-0.1,0.9l4.2,0.3l0.1-1l4,0.4l-0.1,0.9l0.9,0.1l-0.1,1l-4.9-0.3l-0.2,0.6l-4.2-0.5
		l0.1-0.5l-3-0.1l-0.6-1c0.2,0.1,0.2,0.1,0.2,0.1C362.1,667.1,362.1,666.6,362.1,666.3L362.1,666.3z"/>
	<path class="st5" d="M284.8,513.6c0,0-19.9-14.6-22.4-17c-2.5-2.4-5.6-2.3-10-7.9c-4.4-5.6,5.9-1.2,5.9-1.2s3.5,3.9,4.9,5.6
		c1.4,1.7,18,14.5,21.4,15.9c3.5,1.4,3.4,2.8,3.4,2.8S287.5,514.4,284.8,513.6L284.8,513.6z"/>
	<path class="st5" d="M258.4,487.5c0,0,15.7-4.3,21.7-5.6c2.8-0.6,6.9-1.5,10.4-2.4c-0.5-0.8-1.2-2.5-1.4-4.3c-9.9,2.2-20,6-30.6,7
		c-7.5,0.7-8.1,2.7-7.1,4.5C251.1,484.4,258.4,487.5,258.4,487.5L258.4,487.5z"/>
	<path class="st3" d="M290.6,479.6c4.2-1,7.7-1.9,7.7-1.9s3-0.1,7.2,0c0,0,1.2-2.1,0.2-4c-2.6-0.1-5.2-0.1-7.5,0.1
		c-3,0.3-6,0.8-9.1,1.5C289.4,477.1,290.1,478.7,290.6,479.6L290.6,479.6z"/>
	<path class="st3" d="M265.8,533c3.5,1.1,13.1-6.5,14.4-10.2c-4.5-2.8-1.8-6.6-3.3-7.6c0.3,0.1,0.5,0.3,0.7,0.5
		c1.5,1.5,0.3,4.7-2.6,7.2c-2.9,2.4-6.5,3.2-8,1.7c-1-1-0.8-2.7,0.2-4.4l-0.7,0.4c-4.4,2.5-2.3,11.5-1.3,11.9
		C266.1,532.9,263.9,531.7,265.8,533L265.8,533z"/>
	<path class="st3" d="M306.8,523.7L306.8,523.7c0,0,7.1-2.7,9.1-7.8c0,0,1.2-3.3,1.2-4.5c0-1.1-3.7-0.9-3.7-0.9l-0.6,1.2l-1.5-0.6
		l-0.5,1.3l-1.3-0.6l-0.2,1.5l-1.2-0.3l-0.3,2.1l-1.5-0.3l-3.1,3.4c0.8,1,2.8,3.3,2.8,3.3S306.8,522.5,306.8,523.7L306.8,523.7z"/>
	<path class="st3" d="M269.5,517.4c2.9-2.4,6.5-3.2,8-1.7c1.5,1.5,0.3,4.7-2.6,7.2c-2.9,2.4-6.5,3.2-8,1.7
		C265.4,523,266.6,519.8,269.5,517.4L269.5,517.4z"/>
	<path class="st5" d="M273.6,515.2C273.6,515.2,273.6,515.2,273.6,515.2c1,1,0.2,3.1-1.6,4.6c-1.9,1.6-4.1,2-5.1,1.1
		c0,0-0.1-0.1-0.1-0.1c0.5-1.1,1.5-2.3,2.7-3.3C270.8,516.3,272.3,515.6,273.6,515.2L273.6,515.2z"/>
	<path class="st5" d="M272.6,515.5c0.3,0.9-0.4,2.2-1.6,3.2c-1.3,1.1-2.8,1.5-3.7,1.1c0.5-0.9,1.3-1.7,2.2-2.5
		C270.5,516.6,271.6,515.9,272.6,515.5z"/>
	<path class="st6" d="M224.5,621.2c0,0-2.1,14.1-9.4,22.7c-7.3,8.6-6.9-15.9-6.9-15.9s0.2-18.3,7.3-25.8c7-7.5,9.9,6.6,9.9,6.6
		S225.8,614.5,224.5,621.2L224.5,621.2z"/>
	<path class="st3" d="M278.6,504.7c-0.6,1.5-2.4,1-2.6,2.9c4.6,3.4,8.9,6,8.9,6c2.7,0.8,3.4-1.7,3.4-1.7s-1.2-1.9-3.4-2.8
		C282.5,508.2,281.4,506.7,278.6,504.7L278.6,504.7z"/>
	<path class="st3" d="M292.4,507.6L292.4,507.6c0,0,4.9-5.4,10.8-5.6c0,0,3.8-0.1,5,0.3c1.2,0.4-0.2,3.5-0.2,3.5l-1.4,0.1l0.1,1.5
		l-1.5,0l0.2,1.3l-1.7-0.2l-0.1,1.1l-2.3-0.3l-0.1,0.9l-1.3-0.4C296.6,508.3,294.2,507.7,292.4,507.6L292.4,507.6z"/>
	<path class="st3" d="M315.2,550.9c0,0-6.4-0.7-7,0.7c-0.6,1.3,0.6,3.1,1.9,3.4c1.3,0.3,10.4,0.7,22.7-2.5s25.1-9.3,25.1-9.3
		s2.3-2.3-1.6-1.8C352.2,541.7,346.7,547.8,315.2,550.9z"/>
	<path class="st3" d="M302.1,530.4c3.5,3.4,12.6,12.3,18.1,15.5c0,0,3.3,0,2.4-2.4c-0.9-2.4-16.1-13.5-16.1-13.5l-1.8-0.9
		c0,0.1,0.1,0.1,0,0.2C304.6,529.9,303,530.3,302.1,530.4L302.1,530.4z"/>
	<path class="st3" d="M322.7,544.2c0.8,0,1.9-0.4,3.5-1.4c4.6-2.9,40.5-21.1,43.6-20.9c3.2,0.2,2.7,3.5,2.7,3.5
		s-42.7,19.3-44.6,20.4c-1.6,1-5.1,0.9-7,0.1C321.7,545.8,322.8,545.4,322.7,544.2L322.7,544.2z"/>
	<path class="st3" d="M372.5,525.2c7.8-0.9,18.5-4.3,25.1-2.2c6.2,2-0.1-1.9-0.1-1.9s-17.3-2.3-26.4,1.1
		C372.6,523,372.6,524.7,372.5,525.2z"/>
	<path class="st3" d="M290.6,520.3l10.7,10.3c0,0,3.2-0.3,3.5-1.2c0.3-0.9-10.6-10-10.6-10S289.4,515.9,290.6,520.3L290.6,520.3z"/>
	<g>
		<defs>
			<path id="SVGID_4_" d="M281.7,525.8c5.4-3.6,12-3.5,14.8,0.1c2.7,3.7,0.5,9.5-4.9,13.1c-5.4,3.6-12,3.5-14.8-0.1
				C274.1,535.2,276.3,529.3,281.7,525.8z"/>
		</defs>
		<use xlink:href="#SVGID_4_"  style="overflow:visible;fill:#FFFFFF;"/>
		<clipPath id="SVGID_5_">
			<use xlink:href="#SVGID_4_"  style="overflow:visible;"/>
		</clipPath>
		<polygon class="st7" points="292.2,547.5 291.2,547.1 300,524.7 301,525.1 		"/>
		<polygon id="_1_3856" class="st7" points="291.2,547.1 291.1,547.1 299.9,524.7 300,524.7 		"/>
		<polygon id="_2_3857" class="st7" points="291.1,547.1 291,547 299.9,524.6 300,524.7 		"/>
		<polygon id="_3_3858" class="st7" points="291.1,547.1 291,547 299.8,524.6 299.9,524.6 		"/>
		<polygon id="_4_3859" class="st7" points="291,547 290.9,547 299.7,524.6 299.8,524.6 		"/>
		<polygon id="_5_3860" class="st7" points="290.9,547 290.8,547 299.6,524.5 299.8,524.6 		"/>
		<polygon id="_6_3861" class="st7" points="290.9,547 290.8,546.9 299.6,524.5 299.7,524.6 		"/>
		<polygon id="_7_3862" class="st7" points="290.8,547 290.7,546.9 299.5,524.5 299.6,524.5 		"/>
		<polygon id="_8_3863" class="st7" points="290.7,546.9 290.6,546.9 299.4,524.5 299.5,524.5 		"/>
		<polygon id="_9_3864" class="st7" points="290.6,546.9 290.5,546.9 299.4,524.4 299.5,524.5 		"/>
		<polygon id="_10_3865" class="st7" points="290.6,546.9 290.5,546.8 299.3,524.4 299.4,524.4 		"/>
		<polygon id="_11_3866" class="st7" points="290.5,546.8 290.4,546.8 299.2,524.4 299.3,524.4 		"/>
		<polygon id="_12_3867" class="st7" points="290.4,546.8 290.3,546.8 299.2,524.3 299.3,524.4 		"/>
		<polygon id="_13_3868" class="st7" points="290.4,546.8 290.3,546.7 299.1,524.3 299.2,524.4 		"/>
		<polygon id="_14_3869" class="st7" points="290.3,546.8 290.2,546.7 299,524.3 299.1,524.3 		"/>
		<polygon id="_15_3870" class="st7" points="290.2,546.7 290.1,546.7 298.9,524.3 299,524.3 		"/>
		<polygon id="_16_3871" class="st7" points="290.2,546.7 290,546.7 298.9,524.2 299,524.3 		"/>
		<polygon id="_17_3872" class="st7" points="290.1,546.7 290,546.6 298.8,524.2 298.9,524.3 		"/>
		<polygon id="_18_3873" class="st7" points="290,546.6 289.9,546.6 298.7,524.2 298.8,524.2 		"/>
		<polygon id="_19_3874" class="st7" points="289.9,546.6 289.8,546.6 298.7,524.2 298.8,524.2 		"/>
		<polygon id="_20_3875" class="st7" points="289.9,546.6 289.8,546.5 298.6,524.1 298.7,524.2 		"/>
		<polygon id="_21_3876" class="st7" points="289.8,546.6 289.7,546.5 298.5,524.1 298.6,524.1 		"/>
		<polygon id="_22_3877" class="st7" points="289.7,546.5 289.6,546.5 298.4,524.1 298.6,524.1 		"/>
		<polygon id="_23_3878" class="st7" points="289.7,546.5 289.6,546.5 298.4,524 298.5,524.1 		"/>
		<polygon id="_24_3879" class="st7" points="289.6,546.5 289.5,546.4 298.3,524 298.4,524.1 		"/>
		<polygon id="_25_3880" class="st7" points="289.5,546.4 289.4,546.4 298.2,524 298.3,524 		"/>
		<polygon id="_26_3881" class="st7" points="289.4,546.4 289.3,546.4 298.2,524 298.3,524 		"/>
		<polygon id="_27_3882" class="st7" points="289.4,546.4 289.3,546.4 298.1,523.9 298.2,524 		"/>
		<polygon id="_28_3883" class="st7" points="289.3,546.4 289.2,546.3 298,523.9 298.1,523.9 		"/>
		<polygon id="_29_3884" class="st7" points="289.2,546.3 289.1,546.3 297.9,523.9 298.1,523.9 		"/>
		<polygon id="_30_3885" class="st7" points="289.2,546.3 289.1,546.3 297.9,523.8 298,523.9 		"/>
		<polygon id="_31_3886" class="st7" points="289.1,546.3 289,546.2 297.8,523.8 297.9,523.9 		"/>
		<polygon id="_32_3887" class="st7" points="289,546.3 288.9,546.2 297.7,523.8 297.8,523.8 		"/>
		<polygon id="_33_3888" class="st7" points="288.9,546.2 288.8,546.2 297.7,523.8 297.8,523.8 		"/>
		<polygon id="_34_3889" class="st7" points="288.9,546.2 288.8,546.2 297.6,523.7 297.7,523.8 		"/>
		<polygon id="_35_3890" class="st7" points="288.8,546.2 288.7,546.1 297.5,523.7 297.6,523.8 		"/>
		<polygon id="_36_3891" class="st7" points="288.7,546.1 288.6,546.1 297.5,523.7 297.6,523.7 		"/>
		<polygon id="_37_3892" class="st7" points="288.7,546.1 288.6,546.1 297.4,523.7 297.5,523.7 		"/>
		<polygon id="_38_3893" class="st7" points="288.6,546.1 288.5,546 297.3,523.6 297.4,523.7 		"/>
		<polygon id="_39_3894" class="st7" points="288.5,546.1 288.4,546 297.2,523.6 297.3,523.6 		"/>
		<polygon id="_40_3895" class="st7" points="288.5,546 288.3,546 297.2,523.6 297.3,523.6 		"/>
		<polygon id="_41_3896" class="st7" points="288.4,546 288.3,546 297.1,523.5 297.2,523.6 		"/>
		<polygon id="_42_3897" class="st7" points="288.3,546 288.2,545.9 297,523.5 297.1,523.6 		"/>
		<polygon id="_43_3898" class="st7" points="288.2,545.9 288.1,545.9 297,523.5 297.1,523.5 		"/>
		<polygon id="_44_3899" class="st7" points="288.2,545.9 288.1,545.9 296.9,523.5 297,523.5 		"/>
		<polygon id="_45_3900" class="st7" points="288.1,545.9 288,545.9 296.8,523.4 296.9,523.5 		"/>
		<polygon id="_46_3901" class="st7" points="288,545.9 287.9,545.8 296.7,523.4 296.9,523.4 		"/>
		<polygon id="_47_3902" class="st7" points="288,545.8 287.9,545.8 296.7,523.4 296.8,523.4 		"/>
		<polygon id="_48_3903" class="st7" points="287.9,545.8 287.8,545.8 296.6,523.3 296.7,523.4 		"/>
		<polygon id="_49_3904" class="st7" points="287.8,545.8 287.7,545.7 296.5,523.3 296.6,523.4 		"/>
		<polygon id="_50_3905" class="st7" points="287.7,545.8 287.6,545.7 296.5,523.3 296.6,523.3 		"/>
		<polygon id="_51_3906" class="st7" points="287.7,545.7 287.6,545.7 296.4,523.3 296.5,523.3 		"/>
		<polygon id="_52_3907" class="st7" points="287.6,545.7 287.5,545.7 296.3,523.2 296.4,523.3 		"/>
		<polygon id="_53_3908" class="st7" points="287.5,545.7 287.4,545.6 296.2,523.2 296.4,523.2 		"/>
		<polygon id="_54_3909" class="st7" points="287.5,545.6 287.4,545.6 296.2,523.2 296.3,523.2 		"/>
		<polygon id="_55_3910" class="st7" points="287.4,545.6 287.3,545.6 296.1,523.2 296.2,523.2 		"/>
		<polygon id="_56_3911" class="st7" points="287.3,545.6 287.2,545.5 296,523.1 296.1,523.2 		"/>
		<polygon id="_57_3912" class="st7" points="287.3,545.6 287.1,545.5 296,523.1 296.1,523.1 		"/>
		<polygon id="_58_3913" class="st7" points="287.2,545.5 287.1,545.5 295.9,523.1 296,523.1 		"/>
		<polygon id="_59_3914" class="st7" points="287.1,545.5 287,545.5 295.8,523 295.9,523.1 		"/>
		<polygon id="_60_3915" class="st7" points="287,545.5 286.9,545.4 295.8,523 295.9,523.1 		"/>
		<polygon id="_61_3916" class="st7" points="287,545.4 286.9,545.4 295.7,523 295.8,523 		"/>
		<polygon id="_62_3917" class="st7" points="286.9,545.4 286.8,545.4 295.6,523 295.7,523 		"/>
		<polygon id="_63_3918" class="st7" points="286.8,545.4 286.7,545.3 295.5,522.9 295.6,523 		"/>
		<polygon id="_64_3919" class="st7" points="286.8,545.4 286.6,545.3 295.5,522.9 295.6,522.9 		"/>
		<polygon id="_65_3920" class="st7" points="286.7,545.3 286.6,545.3 295.4,522.9 295.5,522.9 		"/>
		<polygon id="_66_3921" class="st7" points="286.6,545.3 286.5,545.3 295.3,522.8 295.4,522.9 		"/>
		<polygon id="_67_3922" class="st7" points="286.5,545.3 286.4,545.2 295.3,522.8 295.4,522.9 		"/>
		<polygon id="_68_3923" class="st7" points="286.5,545.3 286.4,545.2 295.2,522.8 295.3,522.8 		"/>
		<polygon id="_69_3924" class="st7" points="286.4,545.2 286.3,545.2 295.1,522.8 295.2,522.8 		"/>
		<polygon id="_70_3925" class="st7" points="286.3,545.2 286.2,545.2 295,522.7 295.2,522.8 		"/>
		<polygon id="_71_3926" class="st7" points="286.3,545.2 286.2,545.1 295,522.7 295.1,522.7 		"/>
		<polygon id="_72_3927" class="st7" points="286.2,545.1 286.1,545.1 294.9,522.7 295,522.7 		"/>
		<polygon id="_73_3928" class="st7" points="286.1,545.1 286,545.1 294.8,522.7 294.9,522.7 		"/>
		<polygon id="_74_3929" class="st7" points="286,545.1 285.9,545 294.8,522.6 294.9,522.7 		"/>
		<polygon id="_75_3930" class="st7" points="286,545.1 285.9,545 294.7,522.6 294.8,522.6 		"/>
		<polygon id="_76_3931" class="st7" points="285.9,545 285.8,545 294.6,522.6 294.7,522.6 		"/>
		<polygon id="_77_3932" class="st7" points="285.8,545 285.7,545 294.6,522.5 294.7,522.6 		"/>
		<polygon id="_78_3933" class="st7" points="285.8,545 285.7,544.9 294.5,522.5 294.6,522.6 		"/>
		<polygon id="_79_3934" class="st7" points="285.7,544.9 285.6,544.9 294.4,522.5 294.5,522.5 		"/>
		<polygon id="_80_3935" class="st7" points="285.6,544.9 285.5,544.9 294.3,522.5 294.4,522.5 		"/>
		<polygon id="_81_3936" class="st7" points="285.6,544.9 285.4,544.8 294.3,522.4 294.4,522.5 		"/>
		<polygon id="_82_3937" class="st7" points="285.5,544.9 285.4,544.8 294.2,522.4 294.3,522.4 		"/>
		<polygon id="_83_3938" class="st7" points="285.4,544.8 285.3,544.8 294.1,522.4 294.2,522.4 		"/>
		<polygon id="_84_3939" class="st7" points="285.3,544.8 285.2,544.8 294.1,522.3 294.2,522.4 		"/>
		<polygon id="_85_3940" class="st7" points="285.3,544.8 285.2,544.7 294,522.3 294.1,522.4 		"/>
		<polygon id="_86_3941" class="st7" points="285.2,544.8 285.1,544.7 293.9,522.3 294,522.3 		"/>
		<polygon id="_87_3942" class="st7" points="285.1,544.7 285,544.7 293.8,522.3 293.9,522.3 		"/>
		<polygon id="_88_3943" class="st7" points="285.1,544.7 284.9,544.7 293.8,522.2 293.9,522.3 		"/>
		<polygon id="_89_3944" class="st7" points="285,544.7 284.9,544.6 293.7,522.2 293.8,522.2 		"/>
		<polygon id="_90_3945" class="st7" points="284.9,544.6 284.8,544.6 293.6,522.2 293.7,522.2 		"/>
		<polygon id="_91_3946" class="st7" points="284.8,544.6 284.7,544.6 293.6,522.1 293.7,522.2 		"/>
		<polygon id="_92_3947" class="st7" points="284.8,544.6 284.7,544.5 293.5,522.1 293.6,522.2 		"/>
		<polygon id="_93_3948" class="st7" points="284.7,544.6 284.6,544.5 293.4,522.1 293.5,522.1 		"/>
		<polygon id="_94_3949" class="st7" points="284.6,544.5 284.5,544.5 293.3,522.1 293.5,522.1 		"/>
		<polygon id="_95_3950" class="st7" points="284.6,544.5 284.5,544.5 293.3,522 293.4,522.1 		"/>
		<polygon id="_96_3951" class="st7" points="284.5,544.5 284.4,544.4 293.2,522 293.3,522.1 		"/>
		<polygon id="_97_3952" class="st7" points="284.4,544.4 284.3,544.4 293.1,522 293.2,522 		"/>
		<polygon id="_98_3953" class="st7" points="284.3,544.4 284.2,544.4 293.1,522 293.2,522 		"/>
		<polygon id="_99_3954" class="st7" points="284.3,544.4 284.2,544.3 293,521.9 293.1,522 		"/>
		<polygon id="_100_3955" class="st7" points="284.2,544.4 284.1,544.3 292.9,521.9 293,521.9 		"/>
		<polygon id="_101_3956" class="st7" points="284.1,544.3 284,544.3 292.9,521.9 293,521.9 		"/>
		<polygon id="_102_3957" class="st7" points="284.1,544.3 284,544.3 292.8,521.8 292.9,521.9 		"/>
		<polygon id="_103_3958" class="st7" points="284,544.3 283.9,544.2 292.7,521.8 292.8,521.9 		"/>
		<polygon id="_104_3959" class="st7" points="283.9,544.2 283.8,544.2 292.6,521.8 292.7,521.8 		"/>
		<polygon id="_105_3960" class="st7" points="283.9,544.2 283.7,544.2 292.6,521.8 292.7,521.8 		"/>
		<polygon id="_106_3961" class="st7" points="283.8,544.2 283.7,544.2 292.5,521.7 292.6,521.8 		"/>
		<polygon id="_107_3962" class="st7" points="283.7,544.2 283.6,544.1 292.4,521.7 292.5,521.7 		"/>
		<polygon id="_108_3963" class="st7" points="283.6,544.1 283.5,544.1 292.4,521.7 292.5,521.7 		"/>
		<polygon id="_109_3964" class="st7" points="283.6,544.1 283.5,544.1 292.3,521.6 292.4,521.7 		"/>
		<polygon id="_110_3965" class="st7" points="283.5,544.1 283.4,544 292.2,521.6 292.3,521.7 		"/>
		<polygon id="_111_3966" class="st7" points="283.4,544.1 283.3,544 292.1,521.6 292.3,521.6 		"/>
		<polygon id="_112_3967" class="st7" points="283.4,544 283.3,544 292.1,521.6 292.2,521.6 		"/>
		<polygon id="_113_3968" class="st7" points="283.3,544 283.2,544 292,521.5 292.1,521.6 		"/>
		<polygon id="_114_3969" class="st7" points="283.2,544 283.1,543.9 291.9,521.5 292,521.5 		"/>
		<polygon id="_115_3970" class="st7" points="283.1,543.9 283,543.9 291.9,521.5 292,521.5 		"/>
		<polygon id="_116_3971" class="st7" points="283.1,543.9 283,543.9 291.8,521.5 291.9,521.5 		"/>
		<polygon id="_117_3972" class="st7" points="283,543.9 282.9,543.8 291.7,521.4 291.8,521.5 		"/>
		<polygon id="_118_3973" class="st7" points="282.9,543.9 282.8,543.8 291.6,521.4 291.8,521.4 		"/>
		<polygon id="_119_3974" class="st7" points="282.9,543.8 282.8,543.8 291.6,521.4 291.7,521.4 		"/>
		<polygon id="_120_3975" class="st7" points="282.8,543.8 282.7,543.8 291.5,521.3 291.6,521.4 		"/>
		<polygon id="_121_3976" class="st7" points="282.7,543.8 282.6,543.7 291.4,521.3 291.5,521.4 		"/>
		<polygon id="_122_3977" class="st7" points="282.6,543.7 282.5,543.7 291.4,521.3 291.5,521.3 		"/>
		<polygon id="_123_3978" class="st7" points="282.6,543.7 282.5,543.7 291.3,521.3 291.4,521.3 		"/>
		<polygon id="_124_3979" class="st7" points="282.5,543.7 282.4,543.6 291.2,521.2 291.3,521.3 		"/>
		<polygon id="_125_3980" class="st7" points="282.4,543.7 282.3,543.6 291.2,521.2 291.3,521.2 		"/>
		<polygon id="_126_3981" class="st7" points="282.4,543.6 282.3,543.6 291.1,521.2 291.2,521.2 		"/>
		<polygon id="_127_3982" class="st7" points="282.3,543.6 282.2,543.6 291,521.1 291.1,521.2 		"/>
		<polygon id="_128_3983" class="st7" points="282.2,543.6 282.1,543.5 290.9,521.1 291,521.2 		"/>
		<polygon id="_129_3984" class="st7" points="282.2,543.6 282,543.5 290.9,521.1 291,521.1 		"/>
		<polygon id="_130_3985" class="st7" points="282.1,543.5 282,543.5 290.8,521.1 290.9,521.1 		"/>
		<polygon id="_131_3986" class="st7" points="282,543.5 281.9,543.5 290.7,521 290.8,521.1 		"/>
		<polygon id="_132_3987" class="st7" points="281.9,543.5 281.8,543.4 290.7,521 290.8,521 		"/>
		<polygon id="_133_3988" class="st7" points="281.9,543.4 281.8,543.4 290.6,521 290.7,521 		"/>
		<polygon id="_134_3989" class="st7" points="281.8,543.4 281.7,543.4 290.5,521 290.6,521 		"/>
		<polygon id="_135_3990" class="st7" points="281.7,543.4 281.6,543.3 290.4,520.9 290.6,521 		"/>
		<polygon id="_136_3991" class="st7" points="281.7,543.4 281.6,543.3 290.4,520.9 290.5,520.9 		"/>
		<polygon id="_137_3992" class="st7" points="281.6,543.3 281.5,543.3 290.3,520.9 290.4,520.9 		"/>
		<polygon id="_138_3993" class="st7" points="281.5,543.3 281.4,543.3 290.2,520.8 290.3,520.9 		"/>
		<polygon id="_139_3994" class="st7" points="281.4,543.3 281.3,543.2 290.2,520.8 290.3,520.9 		"/>
		<polygon id="_140_3995" class="st7" points="281.4,543.2 281.3,543.2 290.1,520.8 290.2,520.8 		"/>
		<polygon id="_141_3996" class="st7" points="281.3,543.2 281.2,543.2 290,520.8 290.1,520.8 		"/>
		<polygon id="_142_3997" class="st7" points="281.2,543.2 281.1,543.1 289.9,520.7 290.1,520.8 		"/>
		<polygon id="_143_3998" class="st7" points="281.2,543.2 281.1,543.1 289.9,520.7 290,520.7 		"/>
		<polygon id="_144_3999" class="st7" points="281.1,543.1 281,543.1 289.8,520.7 289.9,520.7 		"/>
		<polygon id="_145_4000" class="st7" points="281,543.1 280.9,543.1 289.7,520.6 289.8,520.7 		"/>
		<polygon id="_146_4001" class="st7" points="280.9,543.1 280.8,543 289.7,520.6 289.8,520.7 		"/>
		<polygon id="_147_4002" class="st7" points="280.9,543.1 280.8,543 289.6,520.6 289.7,520.6 		"/>
		<polygon id="_148_4003" class="st7" points="280.8,543 280.7,543 289.5,520.6 289.6,520.6 		"/>
		<polygon id="_149_4004" class="st7" points="280.7,543 280.6,543 289.5,520.5 289.6,520.6 		"/>
		<polygon id="_150_4005" class="st7" points="280.7,543 280.6,542.9 289.4,520.5 289.5,520.5 		"/>
		<polygon id="_151_4006" class="st7" points="280.6,542.9 280.5,542.9 289.3,520.5 289.4,520.5 		"/>
		<polygon id="_152_4007" class="st7" points="280.5,542.9 280.4,542.9 289.2,520.4 289.3,520.5 		"/>
		<polygon id="_153_4008" class="st7" points="280.5,542.9 280.3,542.8 289.2,520.4 289.3,520.5 		"/>
		<polygon id="_154_4009" class="st7" points="280.4,542.9 280.3,542.8 289.1,520.4 289.2,520.4 		"/>
		<polygon id="_155_4010" class="st7" points="280.3,542.8 280.2,542.8 289,520.4 289.1,520.4 		"/>
		<polygon id="_156_4011" class="st7" points="280.2,542.8 280.1,542.8 289,520.3 289.1,520.4 		"/>
		<polygon id="_157_4012" class="st7" points="280.2,542.8 280.1,542.7 288.9,520.3 289,520.4 		"/>
		<polygon id="_158_4013" class="st7" points="280.1,542.7 280,542.7 288.8,520.3 288.9,520.3 		"/>
		<polygon id="_159_4014" class="st7" points="280,542.7 279.9,542.7 288.7,520.3 288.9,520.3 		"/>
		<polygon id="_160_4015" class="st7" points="280,542.7 279.9,542.6 288.7,520.2 288.8,520.3 		"/>
		<polygon id="_161_4016" class="st7" points="279.9,542.7 279.8,542.6 288.6,520.2 288.7,520.2 		"/>
		<polygon id="_162_4017" class="st7" points="279.8,542.6 279.7,542.6 288.5,520.2 288.6,520.2 		"/>
		<polygon id="_163_4018" class="st7" points="279.7,542.6 279.6,542.6 288.5,520.1 288.6,520.2 		"/>
		<polygon id="_164_4019" class="st7" points="279.7,542.6 279.6,542.5 288.4,520.1 288.5,520.2 		"/>
		<polygon id="_165_4020" class="st7" points="279.6,542.5 279.5,542.5 288.3,520.1 288.4,520.1 		"/>
		<polygon id="_166_4021" class="st7" points="279.5,542.5 279.4,542.5 288.3,520.1 288.4,520.1 		"/>
		<polygon id="_167_4022" class="st7" points="279.5,542.5 279.4,542.5 288.2,520 288.3,520.1 		"/>
		<polygon id="_168_4023" class="st7" points="279.4,542.5 279.3,542.4 288.1,520 288.2,520 		"/>
		<polygon id="_169_4024" class="st7" points="279.3,542.4 279.2,542.4 288,520 288.1,520 		"/>
		<polygon id="_170_4025" class="st7" points="279.3,542.4 279.1,542.4 288,519.9 288.1,520 		"/>
		<polygon id="_171_4026" class="st7" points="279.2,542.4 279.1,542.3 287.9,519.9 288,520 		"/>
		<polygon id="_172_4027" class="st7" points="279.1,542.4 279,542.3 287.8,519.9 287.9,519.9 		"/>
		<polygon id="_173_4028" class="st7" points="279,542.3 278.9,542.3 287.8,519.9 287.9,519.9 		"/>
		<polygon id="_174_4029" class="st7" points="279,542.3 278.9,542.3 287.7,519.8 287.8,519.9 		"/>
		<polygon id="_175_4030" class="st7" points="278.9,542.3 278.8,542.2 287.6,519.8 287.7,519.9 		"/>
		<polygon id="_176_4031" class="st7" points="278.8,542.2 278.7,542.2 287.5,519.8 287.6,519.8 		"/>
		<polygon id="_177_4032" class="st7" points="278.8,542.2 278.6,542.2 287.5,519.8 287.6,519.8 		"/>
		<polygon id="_178_4033" class="st7" points="278.7,542.2 278.6,542.1 287.4,519.7 287.5,519.8 		"/>
		<polygon id="_179_4034" class="st7" points="278.6,542.2 278.5,542.1 287.3,519.7 287.4,519.7 		"/>
		<polygon id="_180_4035" class="st7" points="278.5,542.1 278.4,542.1 287.3,519.7 287.4,519.7 		"/>
		<polygon id="_181_4036" class="st7" points="278.5,542.1 278.4,542.1 287.2,519.6 287.3,519.7 		"/>
		<polygon id="_182_4037" class="st7" points="278.4,542.1 278.3,542 287.1,519.6 287.2,519.7 		"/>
		<polygon id="_183_4038" class="st7" points="278.3,542 278.2,542 287,519.6 287.2,519.6 		"/>
		<polygon id="_184_4039" class="st7" points="278.3,542 278.2,542 287,519.6 287.1,519.6 		"/>
		<polygon id="_185_4040" class="st7" points="278.2,542 278.1,542 286.9,519.5 287,519.6 		"/>
		<polygon id="_186_4041" class="st7" points="278.1,542 278,541.9 286.8,519.5 286.9,519.5 		"/>
		<polygon id="_187_4042" class="st7" points="278,541.9 277.9,541.9 286.8,519.5 286.9,519.5 		"/>
		<polygon id="_188_4043" class="st7" points="278,541.9 277.9,541.9 286.7,519.4 286.8,519.5 		"/>
		<polygon id="_189_4044" class="st7" points="277.9,541.9 277.8,541.8 286.6,519.4 286.7,519.5 		"/>
		<polygon id="_190_4045" class="st7" points="277.8,541.9 277.7,541.8 286.6,519.4 286.7,519.4 		"/>
		<polygon id="_191_4046" class="st7" points="277.8,541.8 277.7,541.8 286.5,519.4 286.6,519.4 		"/>
		<polygon id="_192_4047" class="st7" points="277.7,541.8 277.6,541.8 286.4,519.3 286.5,519.4 		"/>
		<polygon id="_193_4048" class="st7" points="277.6,541.8 277.5,541.7 286.3,519.3 286.4,519.3 		"/>
		<polygon id="_194_4049" class="st7" points="277.6,541.7 277.4,541.7 286.3,519.3 286.4,519.3 		"/>
		<polygon id="_195_4050" class="st7" points="277.5,541.7 277.4,541.7 286.2,519.3 286.3,519.3 		"/>
		<polygon id="_196_4051" class="st7" points="277.4,541.7 277.3,541.6 286.1,519.2 286.2,519.3 		"/>
		<polygon id="_197_4052" class="st7" points="277.3,541.7 277.2,541.6 286.1,519.2 286.2,519.2 		"/>
		<polygon id="_198_4053" class="st7" points="277.3,541.6 277.2,541.6 286,519.2 286.1,519.2 		"/>
		<polygon id="_199_4054" class="st7" points="277.2,541.6 277.1,541.6 285.9,519.1 286,519.2 		"/>
		<polygon id="_200_4055" class="st7" points="277.1,541.6 277,541.5 285.8,519.1 285.9,519.2 		"/>
		<polygon id="_201_4056" class="st7" points="277.1,541.5 277,541.5 285.8,519.1 285.9,519.1 		"/>
		<polygon id="_202_4057" class="st7" points="277,541.5 276.9,541.5 285.7,519.1 285.8,519.1 		"/>
		<polygon id="_203_4058" class="st7" points="276.9,541.5 276.8,541.4 285.6,519 285.7,519.1 		"/>
		<polygon id="_204_4059" class="st7" points="276.8,541.5 276.7,541.4 285.6,519 285.7,519 		"/>
		<polygon id="_205_4060" class="st7" points="276.8,541.4 276.7,541.4 285.5,519 285.6,519 		"/>
		<polygon id="_206_4061" class="st7" points="276.7,541.4 276.6,541.4 285.4,518.9 285.5,519 		"/>
		<polygon id="_207_4062" class="st7" points="276.6,541.4 276.5,541.3 285.3,518.9 285.5,519 		"/>
		<polygon id="_208_4063" class="st7" points="276.6,541.4 276.5,541.3 285.3,518.9 285.4,518.9 		"/>
		<polygon id="_209_4064" class="st7" points="276.5,541.3 276.4,541.3 285.2,518.9 285.3,518.9 		"/>
		<polygon id="_210_4065" class="st7" points="276.4,541.3 276.3,541.3 285.1,518.8 285.2,518.9 		"/>
		<polygon id="_211_4066" class="st7" points="276.3,541.3 276.2,541.2 285.1,518.8 285.2,518.8 		"/>
		<polygon id="_212_4067" class="st7" points="276.3,541.2 276.2,541.2 285,518.8 285.1,518.8 		"/>
		<polygon id="_213_4068" class="st7" points="276.2,541.2 276.1,541.2 284.9,518.8 285,518.8 		"/>
		<polygon id="_214_4069" class="st7" points="276.1,541.2 276,541.1 284.9,518.7 285,518.8 		"/>
		<polygon id="_215_4070" class="st7" points="276.1,541.2 276,541.1 284.8,518.7 284.9,518.7 		"/>
		<polygon id="_216_4071" class="st7" points="276,541.1 275.9,541.1 284.7,518.7 284.8,518.7 		"/>
		<polygon id="_217_4072" class="st7" points="275.9,541.1 275.8,541.1 284.6,518.6 284.7,518.7 		"/>
		<polygon id="_218_4073" class="st7" points="275.9,541.1 275.7,541 284.6,518.6 284.7,518.7 		"/>
		<polygon id="_219_4074" class="st7" points="275.8,541 275.7,541 284.5,518.6 284.6,518.6 		"/>
		<polygon id="_220_4075" class="st7" points="275.7,541 275.6,541 284.4,518.6 284.5,518.6 		"/>
		<polygon id="_221_4076" class="st7" points="275.6,541 275.5,540.9 284.4,518.5 284.5,518.6 		"/>
		<polygon id="_222_4077" class="st7" points="275.6,541 275.5,540.9 284.3,518.5 284.4,518.5 		"/>
		<polygon id="_223_4078" class="st7" points="275.5,540.9 275.4,540.9 284.2,518.5 284.3,518.5 		"/>
		<polygon id="_224_4079" class="st7" points="275.4,540.9 275.3,540.9 284.1,518.4 284.3,518.5 		"/>
		<polygon id="_225_4080" class="st7" points="275.4,540.9 275.3,540.8 284.1,518.4 284.2,518.5 		"/>
		<polygon id="_226_4081" class="st7" points="275.3,540.9 275.2,540.8 284,518.4 284.1,518.4 		"/>
		<polygon id="_227_4082" class="st7" points="275.2,540.8 275.1,540.8 283.9,518.4 284,518.4 		"/>
		<polygon id="_228_4083" class="st7" points="275.1,540.8 275,540.8 283.9,518.3 284,518.4 		"/>
		<polygon id="_229_4084" class="st7" points="275.1,540.8 275,540.7 283.8,518.3 283.9,518.3 		"/>
		<polygon id="_230_4085" class="st7" points="275,540.7 274.9,540.7 283.7,518.3 283.8,518.3 		"/>
		<polygon id="_231_4086" class="st7" points="274.9,540.7 274.8,540.7 283.6,518.2 283.8,518.3 		"/>
		<polygon id="_232_4087" class="st7" points="274.9,540.7 274.8,540.6 283.6,518.2 283.7,518.3 		"/>
		<polygon id="_233_4088" class="st7" points="274.8,540.7 274.7,540.6 283.5,518.2 283.6,518.2 		"/>
		<polygon id="_234_4089" class="st7" points="274.7,540.6 274.6,540.6 283.4,518.2 283.5,518.2 		"/>
		<polygon id="_235_4090" class="st7" points="274.6,540.6 274.5,540.6 283.4,518.1 283.5,518.2 		"/>
		<polygon id="_236_4091" class="st7" points="274.6,540.6 274.5,540.5 283.3,518.1 283.4,518.2 		"/>
		<polygon id="_237_4092" class="st7" points="274.5,540.5 274.4,540.5 283.2,518.1 283.3,518.1 		"/>
		<polygon id="_238_4093" class="st7" points="274.4,540.5 274.3,540.5 283.2,518.1 283.3,518.1 		"/>
		<polygon id="_239_4094" class="st7" points="274.4,540.5 274.3,540.4 283.1,518 283.2,518.1 		"/>
		<polygon id="_240_4095" class="st7" points="274.3,540.5 274.2,540.4 283,518 283.1,518 		"/>
		<polygon id="_241_4096" class="st7" points="274.2,540.4 274.1,540.4 282.9,518 283,518 		"/>
		<polygon id="_242_4097" class="st7" points="274.2,540.4 274,540.4 282.9,517.9 283,518 		"/>
		<polygon id="_243_4098" class="st7" points="274.1,540.4 274,540.3 282.8,517.9 282.9,518 		"/>
		<polygon id="_244_4099" class="st7" points="274,540.3 273.9,540.3 282.7,517.9 282.8,517.9 		"/>
		<polygon id="_245_4100" class="st7" points="273.9,540.3 273.8,540.3 282.7,517.9 282.8,517.9 		"/>
		<polygon id="_246_4101" class="st7" points="273.9,540.3 273.8,540.3 282.6,517.8 282.7,517.9 		"/>
		<polygon id="_247_4102" class="st7" points="273.8,540.3 273.7,540.2 282.5,517.8 282.6,517.8 		"/>
		<polygon id="_248_4103" class="st7" points="273.7,540.2 273.6,540.2 282.4,517.8 282.6,517.8 		"/>
		<polygon id="_249_4104" class="st7" points="273.7,540.2 273.6,540.2 282.4,517.7 282.5,517.8 		"/>
		<polygon id="_250_4105" class="st7" points="273.6,540.2 273.5,540.1 282.3,517.7 282.4,517.8 		"/>
		<polygon id="_251_4106" class="st7" points="273.5,540.2 273.4,540.1 282.2,517.7 282.3,517.7 		"/>
		<polygon id="_252_4107" class="st7" points="273.4,540.1 273.3,540.1 282.2,517.7 282.3,517.7 		"/>
		<polygon id="_253_4108" class="st7" points="273.4,540.1 273.3,540.1 282.1,517.6 282.2,517.7 		"/>
		<polygon id="_254_4109" class="st7" points="273.3,540.1 273.2,540 282,517.6 282.1,517.6 		"/>
		<polygon id="_255_4110" class="st7" points="273.2,540 272.2,539.6 281.1,517.2 282.1,517.6 		"/>
	</g>
	<path class="st3" d="M274.6,543.8c0,0,1.7,4.6,1.7,11.6c0,0.1,0.1,0.2,0.1,0.3c-1.2-0.1-9.4,2.1-12.5,10.1
		c-0.2,1.4-0.2,2.6-0.1,3.6c-0.6,0-1.2-0.1-1.5-0.4c0,0-0.1,4.7-1.4,8.7c-1.3,4-1.1,6.5-1.1,6.5l-0.1,0.3c-0.3-0.2-0.7-0.4-1-0.7
		c0,0-9.1-0.6-7.1,7c0,0,0.7,1.9,5,3.8c-0.1,0.2-0.2,0.4-0.4,0.6c-0.2-0.2-0.4-0.2-0.4-0.2s-5.8-1.3-7.8,1.5
		c-0.4,0.5-0.5,1.1-0.5,1.8c-0.3,0-0.7-0.1-1.1-0.2c2.2-3.9,0.7-6.7-1.3-7.7c-1.3-0.7-4.2-1.6-6.4-0.8c-0.4-3.5-1.2-13.8,2.1-21.5
		c4.5-10.6,7.4-15.6,12.8-25.9c5.5-10.3,14.1-4.9,14.1-4.9S270.2,541.3,274.6,543.8L274.6,543.8z"/>
	
		<ellipse transform="matrix(0.8887 -0.4585 0.4585 0.8887 -212.5839 190.5718)" class="st5" cx="286.2" cy="533.1" rx="2.8" ry="1.5"/>
</g>
<g>
	
		<radialGradient id="SVGID_6_" cx="446.8371" cy="281.0034" r="44.7857" fx="447.0476" fy="285.453" gradientUnits="userSpaceOnUse">
		<stop  offset="0.3296" style="stop-color:#0146BF"/>
		<stop  offset="1" style="stop-color:#FFFFFF"/>
	</radialGradient>
	<polygon class="st8" points="396.3,270.4 503.8,276.8 520.7,250.8 415.1,248.2 	"/>
	<radialGradient id="SVGID_7_" cx="418.6075" cy="404.2705" r="70.2021" gradientUnits="userSpaceOnUse">
		<stop  offset="0" style="stop-color:#0146BF"/>
		<stop  offset="0.109" style="stop-color:#0649C0"/>
		<stop  offset="0.2331" style="stop-color:#1353C4"/>
		<stop  offset="0.3646" style="stop-color:#2A64C9"/>
		<stop  offset="0.5013" style="stop-color:#4A7BD1"/>
		<stop  offset="0.6421" style="stop-color:#7399DC"/>
		<stop  offset="0.7863" style="stop-color:#A6BEE9"/>
		<stop  offset="0.9305" style="stop-color:#E0E8F7"/>
		<stop  offset="1" style="stop-color:#FFFFFF"/>
	</radialGradient>
	<polygon class="st9" points="327.3,413.2 480.2,429.7 506,393.7 355.5,382.8 	"/>
	<radialGradient id="SVGID_8_" cx="444.9612" cy="334.7529" r="52.8128" gradientUnits="userSpaceOnUse">
		<stop  offset="0" style="stop-color:#0146BF"/>
		<stop  offset="0.1051" style="stop-color:#064AC0"/>
		<stop  offset="0.2291" style="stop-color:#1454C4"/>
		<stop  offset="0.3625" style="stop-color:#2C65CA"/>
		<stop  offset="0.5028" style="stop-color:#4D7ED2"/>
		<stop  offset="0.6483" style="stop-color:#789DDD"/>
		<stop  offset="0.7982" style="stop-color:#ACC3EA"/>
		<stop  offset="0.9489" style="stop-color:#E9EFF9"/>
		<stop  offset="1" style="stop-color:#FFFFFF"/>
	</radialGradient>
	<polygon class="st10" points="362,340.9 484.6,351.5 504.6,322.3 384,316.1 362,340.9 	"/>
	<radialGradient id="SVGID_9_" cx="414.2504" cy="492.2613" r="52.7933" gradientUnits="userSpaceOnUse">
		<stop  offset="0" style="stop-color:#0045BF"/>
		<stop  offset="0.1102" style="stop-color:#0548C0"/>
		<stop  offset="0.2341" style="stop-color:#1252C4"/>
		<stop  offset="0.3647" style="stop-color:#2963C9"/>
		<stop  offset="0.4999" style="stop-color:#487AD1"/>
		<stop  offset="0.6388" style="stop-color:#7197DB"/>
		<stop  offset="0.7807" style="stop-color:#A3BCE8"/>
		<stop  offset="0.9224" style="stop-color:#DCE6F6"/>
		<stop  offset="1" style="stop-color:#FFFFFF"/>
	</radialGradient>
	<polygon class="st11" points="328.9,492.2 450.6,510 472.4,482 352.4,468.7 328.9,492.2 	"/>
	<radialGradient id="SVGID_10_" cx="413.0392" cy="545.7856" r="46.6318" gradientUnits="userSpaceOnUse">
		<stop  offset="5.586592e-03" style="stop-color:#0045BF"/>
		<stop  offset="0.1493" style="stop-color:#0448C0"/>
		<stop  offset="0.2767" style="stop-color:#0E4FC3"/>
		<stop  offset="0.3979" style="stop-color:#205DC7"/>
		<stop  offset="0.5154" style="stop-color:#3A6FCE"/>
		<stop  offset="0.6302" style="stop-color:#5B87D6"/>
		<stop  offset="0.743" style="stop-color:#83A5E0"/>
		<stop  offset="0.8541" style="stop-color:#B3C8EC"/>
		<stop  offset="0.9613" style="stop-color:#EAEFFA"/>
		<stop  offset="1" style="stop-color:#FFFFFF"/>
	</radialGradient>
	<polygon class="st12" points="339.4,560.3 445.3,580.2 465.2,556.5 360.8,540.6 339.4,560.3 	"/>
</g>
</svg>
